<svg width="500" height="200" xmlns="http://www.w3.org/2000/svg">
 <!---->
 <defs>
  <!---->
  <linearGradient y2="0%" x2="100%" y1="0%" x1="0%" id="74aee7d9-51b0-4595-b7ad-e0113e086b19" gradientTransform="rotate(25)">
   <stop stop-color="#0D7CE9" offset="0%"/>
   <stop stop-color="#28C4E0" offset="100%"/>
  </linearGradient>
 </defs>
 <defs>
  <!---->
 </defs>

 <defs>
  <!---->
 </defs>
 <g>
  <title>background</title>
  <rect fill="none" id="canvas_background" height="202" width="502" y="-1" x="-1"/>
 </g>
 <g>
  <title>Layer 1</title>
  <rect id="svg_1" class="logo-background-square" height="200" width="600" y="0" x="0" fill="transparent"/>
  <g transform="matrix(10.5886 0 0 10.5886 23.5056 175.599)" fill="#0D7CE9" id="fa7637c7-0f12-4247-bf26-d9adf5eef1d2">
   <path id="svg_2" d="m17.0873,-12.1136l0,8.38l-2.78,0l0,-10.01l3.88,0l0,0q1.06,0 1.86,0.23l0,0l0,0q0.79,0.23 1.32,0.65l0,0l0,0q0.52,0.43 0.79,1.02l0,0l0,0q0.26,0.6 0.26,1.32l0,0l0,0q0,0.8 -0.28,1.45l0,0l0,0q-0.28,0.66 -0.78,1.12l0,0l0,0q-0.5,0.46 -1.18,0.71l0,0l0,0q-0.67,0.25 -1.46,0.25l0,0l0,0q-0.11,0 -0.22,0l0,0l0,0q-0.11,-0.01 -0.24,-0.03l0,0l0.13,-1.48l0,0q0.03,0.01 0.11,0.01l0,0l0,0q0.08,0.01 0.13,0.01l0,0l0,0q0.32,0 0.53,-0.15l0,0l0,0q0.21,-0.15 0.34,-0.4l0,0l0,0q0.13,-0.25 0.19,-0.55l0,0l0,0q0.05,-0.31 0.05,-0.63l0,0l0,0q0,-0.52 -0.12,-0.88l0,0l0,0q-0.11,-0.36 -0.33,-0.59l0,0l0,0q-0.22,-0.22 -0.53,-0.32l0,0l0,0q-0.31,-0.11 -0.69,-0.11l0,0l-0.98,0zm10.07,8.52l0,0l0,0q-0.98,0 -1.7,-0.29l0,0l0,0q-0.72,-0.29 -1.19,-0.78l0,0l0,0q-0.48,-0.49 -0.71,-1.14l0,0l0,0q-0.23,-0.65 -0.23,-1.36l0,0l0,0q0,-0.83 0.3,-1.55l0,0l0,0q0.31,-0.72 0.87,-1.26l0,0l0,0q0.57,-0.53 1.36,-0.83l0,0l0,0q0.8,-0.31 1.8,-0.31l0,0l0,0q0.97,0 1.69,0.29l0,0l0,0q0.72,0.28 1.2,0.77l0,0l0,0q0.48,0.49 0.72001,1.14l0,0l0,0q0.23,0.65 0.23,1.38l0,0l0,0q0,0.85 -0.31,1.58l0,0l0,0q-0.31001,0.72 -0.88,1.25l0,0l0,0q-0.57,0.52 -1.37,0.82l0,0l0,0q-0.8,0.29 -1.78,0.29zm0.3,-1.61l0,0l0,0q0.26,0 0.49,-0.12l0,0l0,0q0.23,-0.11 0.39,-0.37l0,0l0,0q0.17,-0.25 0.27,-0.64l0,0l0,0q0.09,-0.38 0.09,-0.93l0,0l0,0q0,-0.51 -0.09,-0.92l0,0l0,0q-0.09,-0.41 -0.25,-0.7l0,0l0,0q-0.17,-0.29 -0.42,-0.45l0,0l0,0q-0.25,-0.16 -0.56,-0.16l0,0l0,0q-0.56,0 -0.9,0.51l0,0l0,0q-0.35,0.51 -0.35,1.56l0,0l0,0q0,0.54 0.1,0.95l0,0l0,0q0.09,0.41 0.27,0.7l0,0l0,0q0.17,0.28 0.41,0.42l0,0l0,0q0.25,0.15 0.55,0.15zm4.67001,-5.77l2.92,0l0.66,3.87l0.24,1.46l0.12,0l0.26,-1.46l0.79,-3.65l2.94,0l0.78,3.65l0.28,1.47l0.13,0l0.21,-1.47l0.68,-3.87l2.2,0l-1.88,7.24l-3.09,0l-0.73,-3.27l-0.26,-1.74l-0.14,0l-0.3,1.75l-0.8,3.26l-3.13,0l-1.88,-7.24z"/>
  </g>
  <g transform="matrix(1.841 0 0 1.841 24.9402 152.941)" fill="url(#74aee7d9-51b0-4595-b7ad-e0113e086b19)" id="6f263f11-84e1-418c-a59a-5867737e4b8a">
   <path id="svg_3" d="m9.35489,-73.67999c-4.776,1.17101 -3.477,7.049 0.449,5.09801c0.07,0 22.796,-7.637 37.68998,16.029c1.83,2.908 4.276,-0.855 3.284,-2.92c-3.13599,-6.528 -16.66299,-24.28101 -41.42398,-18.20801l0.001,0.001zm-10.80101,48.94801c-2.81599,-18.09901 4.76801,-30.09701 14.20401,-32.52901c22.45998,-5.79 33.57198,21.898 33.57198,36.46301c0,14.212 -10.14199,20.47 -17.37098,19.836c-12.146,-1.067 -17.865,-13.77199 -19.63,-23.664c-0.431,-2.411 -3.778,-20.96701 11.22,-21.07901c10.214,-0.075 15.95598,17.60201 15.28599,24.41401c-0.438,4.451 -2.527,9.1 -7.25399,8.685c-6.302,-0.553 -8.614,-9.611 -8.932,-13.19c-0.07,-0.568 -1.36,-7.58701 2.072,-6.99301c2.367,0.41001 2.946,4.81601 3.027,5.10401c0.33,1.057 0.554,2.385 0.69,3.612c0.144,1.04 -0.091,2.234 0.327,3.392c0.41,1.345 1.588,2.102 2.608,2.192c0.834,0.073 2.426,-0.78 2.48,-2.084c0.108,-6.936 -2.796,-19.27801 -10.98,-18.552c-4.602,0.408 -7.029,5.67599 -5.718,14.17c1.277,8.272 5.584,17.367 14.098,18.114c9.35998,0.822 13.12998,-7.713 13.12998,-14.144c0,-18.33801 -12.40198,-35.168 -27.05898,-30.13001c-8.417,2.89301 -13.525,12.056 -10.65,27.00001c2.98,15.492 12.146,29.707 25.445,29.322c24.34798,-0.70599 22.65697,-26.63999 22.65697,-26.63999c0,-23.83001 -19.30798,-51.40101 -44.06897,-40.665c-10.20801,4.427 -18.192,19.353 -15.178,37.564c7.646,46.197 41.03199,40.89 42.59099,40.65l0.117,0.013c5.32698,-0.771 4.23799,-6.711 0.33999,-6.044c-22.10498,3.785 -34.03899,-15.648 -37.02199,-34.816l-0.001,-0.001z"/>
  </g>
  <g transform="matrix(0.740497 0 0 0.740497 36.2378 172.563)" fill="#0D7CE9" id="a53dcfae-086f-448a-a5db-2f837a260c28">
   <path id="svg_4" d="m194.3311,-21.09009l-0.83,0l-2.63998,-4l-0.04001,0l-2.72998,0l0,4l-0.70001,0l0,-9.24l3.42999,0l0,0q1.38002,0 2.20001,0.7l0,0l0,0q0.82001,0.7 0.82001,1.92l0,0l0,0q0,1.01 -0.59003,1.67l0,0l0,0q-0.59,0.67 -1.60999,0.86l0,0l2.68999,4.09zm-6.23997,-8.6l0,3.94l2.70999,0l0,0q1.12,0 1.72,-0.51l0,0l0,0q0.58998,-0.5 0.58998,-1.45l0,0l0,0q0,-0.95 -0.58998,-1.47l0,0l0,0q-0.60001,-0.51 -1.72,-0.51l0,0l-2.70999,0zm18.87997,-0.78l0,0q1.30002,0 2.26003,0.58l0,0l0,0q0.95998,0.58 1.48,1.65l0,0l0,0q0.52,1.07 0.52,2.53l0,0l0,0q0,1.46 -0.52,2.53l0,0l0,0q-0.52002,1.07 -1.48,1.65l0,0l0,0q-0.96001,0.58 -2.26003,0.58l0,0l0,0q-1.29999,0 -2.25998,-0.58l0,0l0,0q-0.96002,-0.58 -1.48,-1.65l0,0l0,0q-0.51003,-1.07 -0.51003,-2.53l0,0l0,0q0,-1.46 0.51003,-2.53l0,0l0,0q0.51997,-1.07 1.48,-1.65l0,0l0,0q0.95999,-0.58 2.25998,-0.58l0,0zm0,0.64l0,0q-1.07999,0 -1.87,0.5l0,0l0,0q-0.79001,0.5 -1.20999,1.43l0,0l0,0q-0.43001,0.93 -0.43001,2.19l0,0l0,0q0,1.26 0.43001,2.19l0,0l0,0q0.41998,0.93 1.20999,1.43l0,0l0,0q0.79001,0.5 1.87,0.5l0,0l0,0q1.08002,0 1.88002,-0.5l0,0l0,0q0.8,-0.5 1.22,-1.43l0,0l0,0q0.42998,-0.93 0.42998,-2.19l0,0l0,0q0,-1.26 -0.42998,-2.19l0,0l0,0q-0.42,-0.93 -1.22,-1.43l0,0l0,0q-0.8,-0.5 -1.88002,-0.5l0,0zm13.58002,8.74l0,-9.24l3.26001,0l0,0q1.51999,0 2.25999,0.63l0,0l0,0q0.74998,0.63 0.74998,1.82l0,0l0,0q0,0.81 -0.44,1.37l0,0l0,0q-0.43999,0.56 -1.25,0.73l0,0l0,0.01l0,0q0.90002,0.14 1.42001,0.73l0,0l0,0q0.53001,0.59 0.53001,1.46l0,0l0,0q0,1.19 -0.85001,1.84l0,0l0,0q-0.85002,0.65 -2.42,0.65l0,0l-3.26001,0zm0.69998,-4.98l2.58003,0l0,0q2.25,0 2.25,-1.81l0,0l0,0q0,-1.81 -2.25,-1.81l0,0l-2.58003,0l0,3.62zm0,4.34l2.70003,0l0,0q1.17998,0 1.77998,-0.48l0,0l0,0q0.60001,-0.48 0.60001,-1.37l0,0l0,0q0,-0.91 -0.60001,-1.38l0,0l0,0q-0.60001,-0.47 -1.77998,-0.47l0,0l-2.70003,0l0,3.7zm22.16,-8.6l0,5.87l0,0q0,1.7 -0.91998,2.61l0,0l0,0q-0.92003,0.9 -2.63,0.9l0,0l0,0q-1.70999,0 -2.64001,-0.9l0,0l0,0q-0.92999,-0.91 -0.92999,-2.61l0,0l0,-5.87l0.70001,0l0,5.73l0,0q0,1.48 0.72998,2.24l0,0l0,0q0.72,0.77 2.14001,0.77l0,0l0,0q1.39998,0 2.13,-0.77l0,0l0,0q0.72,-0.76 0.72,-2.24l0,0l0,-5.73l0.69998,0zm12.66,-0.14l0,0q2.60001,0 3.48999,2.04l0,0l-0.60999,0.49l0,0q-0.35001,-0.99 -1.04001,-1.44l0,0l0,0q-0.69,-0.45 -1.82999,-0.45l0,0l0,0q-0.81,0 -1.41,0.26l0,0l0,0q-0.59999,0.25 -0.92001,0.68l0,0l0,0q-0.31,0.44 -0.31,0.98l0,0l0,0q0,0.53 0.26001,0.88l0,0l0,0q0.26999,0.35 0.91002,0.6l0,0l0,0q0.63,0.24 1.74998,0.44l0,0l0,0q1.81,0.31 2.57001,0.9l0,0l0,0q0.74997,0.58 0.74997,1.62l0,0l0,0q0,0.74 -0.42999,1.32l0,0l0,0q-0.44,0.57 -1.22998,0.88l0,0l0,0q-0.79001,0.32 -1.81,0.32l0,0l0,0q-1.46002,0 -2.46002,-0.58l0,0l0,0q-1,-0.58 -1.35999,-1.63l0,0l0.60999,-0.48l0,0q0.28,1 1.13,1.52l0,0l0,0q0.85001,0.53 2.09,0.53l0,0l0,0q1.20999,0 1.97,-0.49l0,0l0,0q0.76001,-0.49 0.76001,-1.35l0,0l0,0q0,-0.74 -0.62,-1.17l0,0l0,0q-0.62,-0.44 -2.16,-0.7l0,0l0,0q-1.30002,-0.23 -2.06,-0.55l0,0l0,0q-0.76001,-0.32 -1.09,-0.8l0,0l0,0q-0.32001,-0.47 -0.32001,-1.19l0,0l0,0q0,-0.71 0.41,-1.31l0,0l0,0q0.41002,-0.61 1.17999,-0.96l0,0l0,0q0.76003,-0.36 1.78,-0.36l0,0zm18.69,0.14l0,0.64l-3.37,0l0,8.6l-0.70001,0l0,-8.6l-3.38,0l0,-0.64l7.45001,0zm19.78,3.61l0,0q0.28,0 0.45999,0.18l0,0l0,0q0.17001,0.17 0.17001,0.45l0,0l0,0q0,0.28 -0.17001,0.45l0,0l0,0q-0.17999,0.17 -0.45999,0.17l0,0l0,0q-0.28,0 -0.44998,-0.17l0,0l0,0q-0.18002,-0.17 -0.18002,-0.45l0,0l0,0q0,-0.28 0.18002,-0.45l0,0l0,0q0.16998,-0.18 0.44998,-0.18l0,0zm29.91,-3.61l0,9.24l-0.67999,0l0,-6.89l0.08997,-1.68l-0.01996,0l-3.37003,8.57l-0.64001,0l-3.37997,-8.57l-0.01001,0l0.08002,1.68l0,6.89l-0.67001,0l0,-9.24l1.05002,0l2.78998,7l0.46002,1.41l0.00998,0l0.44998,-1.4l2.79004,-7.01l1.04999,0zm13.58002,-0.14l0,0q1.29999,0 2.25998,0.58l0,0l0,0q0.95999,0.58 1.47,1.65l0,0l0,0q0.52002,1.07 0.52002,2.53l0,0l0,0q0,1.46 -0.52002,2.53l0,0l0,0q-0.51001,1.07 -1.47,1.65l0,0l0,0q-0.95999,0.58 -2.25998,0.58l0,0l0,0q-1.31003,0 -2.26001,-0.58l0,0l0,0q-0.96002,-0.58 -1.48001,-1.65l0,0l0,0q-0.51999,-1.07 -0.51999,-2.53l0,0l0,0q0,-1.46 0.51999,-2.53l0,0l0,0q0.51999,-1.07 1.48001,-1.65l0,0l0,0q0.94998,-0.58 2.26001,-0.58l0,0zm0,0.64l0,0q-1.08002,0 -1.87003,0.5l0,0l0,0q-0.79001,0.5 -1.22,1.43l0,0l0,0q-0.42999,0.93 -0.42999,2.19l0,0l0,0q0,1.26 0.42999,2.19l0,0l0,0q0.42999,0.93 1.22,1.43l0,0l0,0q0.79001,0.5 1.87003,0.5l0,0l0,0q1.06998,0 1.87,-0.5l0,0l0,0q0.79999,-0.5 1.22998,-1.43l0,0l0,0q0.41998,-0.93 0.41998,-2.19l0,0l0,0q0,-1.26 -0.41998,-2.19l0,0l0,0q-0.42999,-0.93 -1.22998,-1.43l0,0l0,0q-0.80002,-0.5 -1.87,-0.5l0,0zm16.48999,-0.5l0,0q2.20999,0 3.41,1.17l0,0l0,0q1.18997,1.17 1.18997,3.38l0,0l0,0q0,2.27 -1.18997,3.48l0,0l0,0q-1.20001,1.21 -3.41,1.21l0,0l-2.91003,0l0,-9.24l2.91003,0zm0.04999,8.6l0,0q1.85001,0 2.84,-1.05l0,0l0,0q0.99002,-1.04 0.99002,-3l0,0l0,0q0,-1.88 -0.99002,-2.89l0,0l0,0q-0.98999,-1.02 -2.84,-1.02l0,0l-2.26001,0l0,7.96l2.26001,0zm20.91,-8.6l0,5.87l0,0q0,1.7 -0.93002,2.61l0,0l0,0q-0.91998,0.9 -2.62997,0.9l0,0l0,0q-1.70999,0 -2.63998,-0.9l0,0l0,0q-0.93002,-0.91 -0.93002,-2.61l0,0l0,-5.87l0.70001,0l0,5.73l0,0q0,1.48 0.73001,2.24l0,0l0,0q0.72998,0.77 2.13998,0.77l0,0l0,0q1.39999,0 2.13,-0.77l0,0l0,0q0.73001,-0.76 0.73001,-2.24l0,0l0,-5.73l0.69998,0zm10.5,8.6l5.54001,0l0,0.64l-6.23999,0l0,-9.24l0.69998,0l0,8.6zm20.59,0.64l-1.16,-2.9l-4.42999,0l-1.13998,2.9l-0.75,0l3.69998,-9.24l0.82999,0l3.69,9.24l-0.73999,0zm-5.32001,-3.54l3.91,0l-1.61002,-4.03l-0.33997,-0.98l-0.01001,0l-0.34003,0.95l-1.60999,4.06zm21.73001,3.54l-0.82999,0l-2.64001,-4l-0.04999,0l-2.73001,0l0,4l-0.69998,0l0,-9.24l3.42999,0l0,0q1.38998,0 2.20999,0.7l0,0l0,0q0.81998,0.7 0.81998,1.92l0,0l0,0q0,1.01 -0.58997,1.67l0,0l0,0q-0.59003,0.67 -1.61002,0.86l0,0l2.69,4.09zm-6.25,-8.6l0,3.94l2.72,0l0,0q1.12,0 1.70999,-0.51l0,0l0,0q0.60001,-0.5 0.60001,-1.45l0,0l0,0q0,-0.95 -0.60001,-1.47l0,0l0,0q-0.59,-0.51 -1.70999,-0.51l0,0l-2.72,0zm26.66,2.97l0,0q0.27997,0 0.46002,0.18l0,0l0,0q0.16998,0.17 0.16998,0.45l0,0l0,0q0,0.28 -0.16998,0.45l0,0l0,0q-0.18005,0.17 -0.46002,0.17l0,0l0,0q-0.28003,0 -0.45999,-0.17l0,0l0,0q-0.17001,-0.17 -0.17001,-0.45l0,0l0,0q0,-0.28 0.17001,-0.45l0,0l0,0q0.17996,-0.18 0.45999,-0.18l0,0zm22.01001,4.99l5.84,0l0,0.64l-6.54001,0l0,-9.24l6.31,0l0,0.64l-5.60999,0l0,3.57l4.44,0l0,0.66l-4.44,0l0,3.73zm20.97998,0.64l-0.82001,0l-2.82001,-4.19l-2.83997,4.19l-0.82001,0l3.29999,-4.75l-3.02002,-4.49l0.84003,0l2.62997,3.92l2.66,-3.92l0.78003,0l-3.06,4.48l3.16998,4.76zm15.10992,-9.24l0,0.64l-3.37,0l0,8.6l-0.70001,0l0,-8.6l-3.37991,0l0,-0.64l7.44992,0zm9.46002,8.6l5.83997,0l0,0.64l-6.53998,0l0,-9.24l6.32001,0l0,0.64l-5.62,0l0,3.57l4.44,0l0,0.66l-4.44,0l0,3.73zm21.96997,-8.6l0,9.24l-0.87,0l-4.89996,-7.25l-0.67999,-1.23l-0.02002,0l0.03998,1.16l0,7.32l-0.66998,0l0,-9.24l0.88,0l4.89001,7.24l0.69995,1.24l-0.02997,-1.16l0,-7.32l0.65997,0zm12.82001,0l0,0q2.22003,0 3.41003,1.17l0,0l0,0q1.20001,1.17 1.20001,3.38l0,0l0,0q0,2.27 -1.20001,3.48l0,0l0,0q-1.19,1.21 -3.41003,1.21l0,0l-2.90997,0l0,-9.24l2.90997,0zm0.06,8.6l0,0q1.85004,0 2.83002,-1.05l0,0l0,0q0.98999,-1.04 0.98999,-3l0,0l0,0q0,-1.88 -0.98999,-2.89l0,0l0,0q-0.97998,-1.02 -2.83002,-1.02l0,0l-2.26996,0l0,7.96l2.26996,0zm19.94,0.64l-1.16998,-2.9l-4.41998,0l-1.15002,2.9l-0.73999,0l3.70001,-9.24l0.82001,0l3.69995,9.24l-0.73999,0zm-5.32001,-3.54l3.90002,0l-1.60999,-4.03l-0.33002,-0.98l-0.02002,0l-0.32996,0.95l-1.61005,4.06zm14.78003,3.54l0,-9.24l3.26001,0l0,0q1.51001,0 2.26001,0.63l0,0l0,0q0.75,0.63 0.75,1.82l0,0l0,0q0,0.81 -0.44,1.37l0,0l0,0q-0.44,0.56 -1.25,0.73l0,0l0,0.01l0,0q0.88995,0.14 1.41998,0.73l0,0l0,0q0.52002,0.59 0.52002,1.46l0,0l0,0q0,1.19 -0.84003,1.84l0,0l0,0q-0.84998,0.65 -2.41998,0.65l0,0l-3.26001,0zm0.70001,-4.98l2.57996,0l0,0q2.25,0 2.25,-1.81l0,0l0,0q0,-1.81 -2.25,-1.81l0,0l-2.57996,0l0,3.62zm0,4.34l2.70001,0l0,0q1.17999,0 1.77997,-0.48l0,0l0,0q0.59998,-0.48 0.59998,-1.37l0,0l0,0q0,-0.91 -0.59998,-1.38l0,0l0,0q-0.59998,-0.47 -1.77997,-0.47l0,0l-2.70001,0l0,3.7zm15.84998,0l5.53998,0l0,0.64l-6.23999,0l0,-9.24l0.70001,0l0,8.6zm15.01001,0l5.83002,0l0,0.64l-6.53003,0l0,-9.24l6.31,0l0,0.64l-5.60999,0l0,3.57l4.42999,0l0,0.66l-4.42999,0l0,3.73z"/>
  </g>
 </g>
</svg>