<svg data-v-29081953="" xmlns="http://www.w3.org/2000/svg" viewBox="0 0 300 300"><!----><defs data-v-29081953=""><!----></defs><rect data-v-29081953="" fill="transparent" x="0" y="0" width="300px" height="300px" class="logo-background-square"></rect><!----><defs data-v-29081953=""><linearGradient data-v-29081953="" gradientTransform="rotate(25)" id="1c5bca32-607e-4a3d-9473-7bd0a0280ba5" x1="0%" y1="0%" x2="100%" y2="0%"><stop data-v-29081953="" offset="0%" stop-color="#0D7CE9" stop-opacity="1"></stop><stop data-v-29081953="" offset="100%" stop-color="#15CFF1" stop-opacity="1"></stop></linearGradient></defs><g data-v-29081953="" id="f41d098a-98d5-4187-ad67-b373beb874b6" fill="url(#1c5bca32-607e-4a3d-9473-7bd0a0280ba5)" stroke="none" transform="matrix(2.4085136032577426,0,0,2.4085136032577426,29.57190805267053,28.50219781426761)"><path d="M37.513 6.021c-4.776 1.171-3.477 7.049.449 5.098.07 0 22.796-7.637 37.69 16.029 1.83 2.908 4.276-.855 3.284-2.92C75.8 17.7 62.273-.053 37.512 6.02zm-10.8 48.949C23.896 36.87 31.48 24.872 40.916 22.44c22.46-5.79 33.572 21.898 33.572 36.463 0 14.212-10.142 20.47-17.371 19.836-12.146-1.067-17.865-13.772-19.63-23.664-.431-2.411-3.778-20.967 11.22-21.079 10.214-.075 15.956 17.602 15.286 24.414-.438 4.451-2.527 9.1-7.254 8.685-6.302-.553-8.614-9.611-8.932-13.19-.07-.568-1.36-7.587 2.072-6.993 2.367.41 2.946 4.816 3.027 5.104.33 1.057.554 2.385.69 3.612.144 1.04-.091 2.234.327 3.392.41 1.345 1.588 2.102 2.608 2.192.834.073 2.426-.78 2.48-2.084.108-6.936-2.796-19.278-10.98-18.552-4.602.408-7.029 5.676-5.718 14.17 1.277 8.272 5.584 17.367 14.098 18.114 9.36.822 13.13-7.713 13.13-14.144 0-18.338-12.402-35.168-27.059-30.13-8.417 2.893-13.525 12.056-10.65 27 2.98 15.492 12.146 29.707 25.445 29.322 24.348-.706 22.657-26.64 22.657-26.64 0-23.83-19.308-51.401-44.069-40.665-10.208 4.427-18.192 19.353-15.178 37.564 7.646 46.197 41.032 40.89 42.591 40.65l.117.013c5.327-.771 4.238-6.711.34-6.044C41.63 93.571 29.696 74.138 26.713 54.97z"></path></g><!----></svg>