<svg width="500" height="200" xmlns="http://www.w3.org/2000/svg">
 <!---->
 <defs>
  <!---->
  <linearGradient y2="0%" x2="100%" y1="0%" x1="0%" id="4ac835a4-184e-465d-b92b-7e4b29f60261" gradientTransform="rotate(25)">
   <stop stop-color="#0D7CE9" offset="0%"/>
   <stop stop-color="#28C4E0" offset="100%"/>
  </linearGradient>
 </defs>
 <defs>
  <!---->
 </defs>

 <defs>
  <!---->
 </defs>
 <g>
  <title>background</title>
  <rect fill="none" id="canvas_background" height="202" width="502" y="-1" x="-1"/>
 </g>
 <g>
  <title>Layer 1</title>
  <rect id="svg_1" class="logo-background-square" height="200" width="500" y="0" x="0" fill="transparent"/>
  <g transform="matrix(11.3371 0 0 11.3371 36.7695 193.601)" fill="#0D7CE9" id="d16ce35a-4cdb-47a5-87d9-dc876631df02">
   <path id="svg_2" d="m13.38978,-4.95957c0,0.75 0.42,0.95 0.91,0.95c0.29,0 0.58,-0.08 0.93,-0.14c-0.16,-1.29 -0.21,-2.56 -0.22,-3.82c0.24,0.04 0.5,0.05 0.76,0.05c1.9,0 3.93,-1.07 3.93,-3.17c0,-1.43 -1.12,-2.86 -3.67,-2.86l-1.99,0c-0.33,0 -0.86,-0.04 -0.86,-0.04c0,0 0.07,0.15 0.14,1.51c0.04,0.9 0.07,2.02 0.07,3.18l0,4.34zm1.61,-3.67l0,-1.05c0,-1.16 0.05,-3.53 0.05,-3.53l0.44,0c1.68,0 2.46,1.11 2.46,2.24c0,1.18 -0.85,2.37 -2.46,2.37c-0.16,0 -0.33,0 -0.49,-0.03zm5.62,1.15c0,1.82 1.21,3.54 3.56,3.54c2.41,0 3.7,-2 3.7,-4.09c0,-1.69 -1.21,-3.33 -3.56,-3.33c-2.42,0 -3.7,1.88 -3.7,3.88zm1.71,-0.24c0,-1.5 0.59,-3 1.84,-3c1.34,0 2,1.47 2,2.94c0,1.6 -0.6,3.2 -1.85,3.2c-1.33,0 -1.99,-1.56 -1.99,-3.14zm8.47,2.56c0.37,1.18 1.81,1.22 1.81,1.22l0.49,-1.06c0.35,-0.76 0.85,-1.81 1.01,-2.43l0.07,0c0.29,0.93 0.5,1.67 0.68,2.27c0.37,1.18 1.89,1.22 1.89,1.22l2.12,-5.88c0.37,-1.05 0.72,-1.26 0.72,-1.26l0,-0.07c0,0 -0.21,-0.11 -0.64,-0.11c-1.22,0 -0.49,0.54 -2.38,5.96l0,0.02l-0.07,0c-0.63,-1.56 -1.4,-4.12 -1.68,-5.32c-0.1,-0.44 -0.63,-0.66 -1.11,-0.66c-0.56,0 -0.81,0.12 -0.81,0.12c0,0 0.73,1.49 0.73,2.33c0,0.75 -0.25,1.59 -1.12,3.53l-0.07,0c-0.62,-1.56 -1.53,-4.12 -1.82,-5.32c-0.11,-0.44 -0.63,-0.66 -1.11,-0.66c-0.49,0 -0.77,0.05 -1.05,0.11l0,0.07c0.27,0.22 0.42,0.55 0.56,0.84c0.52,1.12 1.39,3.81 1.78,5.08z"/>
  </g>
  <g transform="matrix(1.83715 0 0 1.83715 20.7794 134.543)" fill="url(#4ac835a4-184e-465d-b92b-7e4b29f60261)" id="2942cba9-060b-4c3f-b817-dc26fe81c89c">
   <path id="svg_3" d="m11.91179,-63.51357c-4.776,1.171 -3.477,7.049 0.449,5.098c0.07,0 22.796,-7.637 37.68999,16.029c1.83,2.908 4.276,-0.855 3.284,-2.92c-3.13599,-6.528 -16.66299,-24.281 -41.42399,-18.208l0.001,0.001zm-10.801,48.948c-2.816,-18.099 4.768,-30.097 14.204,-32.529c22.46,-5.79 33.57199,21.898 33.57199,36.463c0,14.212 -10.142,20.47001 -17.37099,19.836c-12.146,-1.067 -17.865,-13.772 -19.63,-23.664c-0.431,-2.411 -3.778,-20.967 11.22,-21.079c10.214,-0.075 15.956,17.602 15.286,24.414c-0.438,4.451 -2.527,9.10001 -7.254,8.68501c-6.302,-0.553 -8.614,-9.611 -8.932,-13.19001c-0.07,-0.568 -1.36,-7.587 2.072,-6.993c2.367,0.41 2.946,4.816 3.027,5.104c0.33,1.057 0.554,2.385 0.69,3.612c0.144,1.04 -0.091,2.234 0.327,3.392c0.41,1.345 1.588,2.102 2.608,2.192c0.834,0.073 2.426,-0.78 2.48,-2.084c0.108,-6.936 -2.796,-19.278 -10.98,-18.552c-4.602,0.408 -7.029,5.676 -5.718,14.17c1.277,8.272 5.584,17.367 14.098,18.11401c9.36,0.822 13.13,-7.713 13.13,-14.144c0,-18.338 -12.402,-35.168 -27.059,-30.13c-8.417,2.893 -13.525,12.056 -10.65,27c2.98,15.49201 12.146,29.707 25.445,29.322c24.348,-0.70599 22.65699,-26.64 22.65699,-26.64c0,-23.83 -19.30799,-51.401 -44.06899,-40.665c-10.208,4.427 -18.192,19.353 -15.178,37.564c7.646,46.197 41.032,40.89 42.591,40.65001l0.117,0.013c5.327,-0.771 4.238,-6.711 0.34,-6.044c-22.105,3.785 -34.039,-15.648 -37.022,-34.81601l-0.001,-0.001z"/>
  </g>
  <g transform="matrix(0.661865 0 0 0.661865 56.5318 169.61)" fill="#0D7CE9" id="90c711af-5447-45ba-8a45-6208a0de51e0">
   <path id="svg_4" d="m197.23317,3.51c0,0.21 0.07001,0.28 0.26001,0.28l0.81999,-0.02c0.09,0 0.14,2.84 0.14,4.78l0,1.87c0,0.88 -0.01999,1.76 -0.06,1.76l-0.59999,0c-0.23001,0 -0.3,0.01 -0.3,0.21c0,0.24 0.05,0.29 0.23999,0.29c0.13,0 0.95001,-0.04 1.37001,-0.04c0.42,0 1.19,0.04 1.51999,0.04c0.16,0 0.19,-0.07 0.19,-0.28c0,-0.16 -0.03,-0.22 -0.19,-0.22l-0.81999,0c-0.07001,0 -0.15001,-3 -0.15001,-3.81c0,-0.07 0,-0.11 0.11,-0.11c0.39,0 1,0.01 1.29001,0.01c2.24001,0.05 2.38,1.73 2.38,3.41l0,0.81c0,0.12 0.06,0.15 0.14999,0.15c0,0 1.45,0.04 1.92,0.04c0.17,0 0.23,-0.04 0.23,-0.15c0,-0.29 -0.06,-0.35 -0.20999,-0.35l-0.65001,0c-0.09999,0 -0.12,-0.04 -0.14999,-0.87c-0.09,-2.32 -1.46001,-2.97 -2.37,-3.26c-0.14,-0.04 -0.11,-0.04 0,-0.1c0.59,-0.26 1.90999,-1.01 1.90999,-2.32c0,-2 -1.7,-2.42 -3.09999,-2.42c-0.32001,0 -1.61,0.08 -2.03,0.08c-0.42,0 -1.40001,-0.03 -1.62001,-0.03c-0.17999,0 -0.28,0.02 -0.28,0.25zm2.42,4.29l0,-3.4c0,-0.35 0.03001,-0.72 0.07001,-0.72c0.21001,-0.03 0.49001,-0.03 0.71001,-0.03c1.31,0 2.54999,0.82 2.54999,2.17c0,1.17 -0.53999,1.75 -1.2,2.06c-0.03999,0.02 -0.09,0.02 -0.16,0.02c-0.47,-0.02 -1.18999,-0.02 -1.78999,-0.03c-0.17,0 -0.18001,-0.02 -0.18001,-0.07zm13.48001,0.35c0,3.02 2.34,4.65 4.59,4.65c2.78999,0 4.75999,-1.91 4.75999,-4.74c0,-2.73 -1.75,-4.95 -4.54999,-4.95c-2.60001,0 -4.8,1.99 -4.8,5.04zm1.39999,-0.38c0,-2.13 1.29001,-4.19 3.26001,-4.19c2.23999,0 3.31999,2.23 3.31999,4.36c0,2.14 -1.10001,4.38 -3.37,4.38c-1.99001,0 -3.21001,-2.04 -3.21001,-4.55zm16.06001,-4.26c0,0.24 0.07999,0.28 0.25,0.28l0.86,-0.02c0.04999,0 0.10999,1.75 0.10999,3.34l0,4.52c0,0.3 -0.01999,0.55 -0.03999,0.55l-0.73,0c-0.23001,0 -0.3,0.01 -0.3,0.21c0,0.24 0.03,0.29 0.23,0.29c0.12001,0 1.08,-0.04 1.5,-0.04c0.18001,0 0.7,0.03 1.34,0.03c1.55,0 3.96001,-0.24 3.96001,-2.44c0,-1.96 -1.81999,-2.29 -2.5,-2.39c-0.09,-0.01 -0.10001,-0.01 -0.10001,-0.03c0,-0.01 0.04001,-0.03 0.11,-0.05c0.64,-0.24 2.09,-0.86 2.09,-2.22c0,-1.73 -1.46999,-2.29 -3.14999,-2.29c-0.58,0 -1.17999,0.04 -1.73,0.04c-0.42,0 -1.42,-0.03 -1.64999,-0.03c-0.18001,0 -0.25,0.02 -0.25,0.25zm2.45,4.68c0,-0.07 0,-0.11 0.11,-0.11l0.48,0c0.61,0 1.25999,0.01 1.64,0.14c0.86,0.29 1.19,0.94 1.19,1.92c0,1.03 -0.47,2.04 -2.48,2.04l-0.84001,0c-0.09,0 -0.09999,-3.16 -0.09999,-3.99zm0,-0.6l0,-0.67c0,-1.05 0.00999,-3.21 0.06,-3.24c0.05,-0.03 0.36,-0.05 0.56999,-0.05c1.41,0 2.44,0.78 2.44,2.14c0,1.15 -0.73,1.69 -1.36,1.89c-0.09,0.03 -0.17999,0.04 -0.26999,0.04c-0.08002,0 -0.22002,-0.01 -0.46001,-0.01l-0.8,0c-0.17999,0 -0.17999,-0.02 -0.17999,-0.1zm12.84,-4.08c0,0.24 0.08,0.26 0.25,0.26l0.53,0c0.06,0 0.06,0.35 0.06,0.78c0,1.11 -0.01999,4.41 -0.01999,4.87c0,1.71 0.25999,3.38 3.10999,3.38c1.08,0 2.24001,-0.42 2.90001,-0.8c0.25,-0.14 0.54999,-0.28 0.62999,-0.28c0.27,0 0.53,1.02 0.87001,1.02c0.31999,0 0.33,-0.39 0.33,-0.49c0,-0.29 0.06,-2.17 0.09999,-4.09c0.06001,-2.04 0.04001,-4.39 0.16,-4.39l0.31999,0c0.22,0 0.29001,-0.02 0.29001,-0.21c0,-0.24 -0.04001,-0.3 -0.24001,-0.3c-0.14,0 -0.67,0.04 -1.09,0.04c-0.42,0 -1.22,-0.04 -1.44,-0.04c-0.17999,0 -0.28,0.02 -0.28,0.25c0,0.24 0.11,0.26 0.28,0.26l0.7,0c0.07001,0 0.08,0.53 0.08,1.1l0,4.27c0,2.05 0,1.98 -0.32999,2.2c-0.39,0.27 -1.21001,0.74 -2.38,0.74c-1.98,0 -2.77,-0.91 -2.77,-2.67c0,-0.59 0.06999,-5.64 0.17999,-5.64l0.91,0c0.22,0 0.26001,-0.02 0.26001,-0.21c0,-0.24 -0.01001,-0.3 -0.21001,-0.3c-0.31999,0 -1.2,0.04 -1.62,0.04c-0.42,0 -1.11,-0.04 -1.33,-0.04c-0.17999,0 -0.25,0.02 -0.25,0.25zm17.78,2.26c0,3.3 4.98001,2.43 4.98001,4.88c0,0.94 -0.84003,1.66 -1.82001,1.66c-0.82001,0 -2.42001,-0.48 -2.45001,-0.84l-0.07999,-1.32c-0.02002,-0.18 -0.09,-0.24 -0.27002,-0.24l-0.06998,0c-0.21002,0 -0.21002,0.09 -0.21002,0.21c0,0.2 0.11002,1.54 0.14001,2.05c0.01999,0.21 1.28,0.68 2.82001,0.68c1.56,0 3.16998,-0.98 3.16998,-2.74c0,-3.32 -4.97,-2.24 -4.97,-4.79c0,-1.01 0.79001,-1.76 1.82001,-1.76c1.03,0 2.12,1.02 2.12,1.33c0,0.12 -0.04001,0.84 -0.04001,0.89c0,0.14 0.04001,0.21 0.30002,0.21c0.23999,0 0.25998,-0.05 0.25998,-0.24c0,-0.71 0.08002,-2.07 0.08002,-2.22c0,-0.23 -0.04001,-0.24 -0.31,-0.24c-0.22,0 -0.24002,0.03 -0.25,0.24c0,0.08 -0.01001,0.25 -0.06,0.25c-0.05002,0 -0.14001,-0.04 -0.20999,-0.1c-0.79001,-0.54 -1.41,-0.6 -1.91,-0.6c-1.53,0 -3.04001,1.09 -3.04001,2.69zm13.76999,-0.76c0,0.16 0.19,0.16 0.31,0.16c0.16,0 0.20001,-0.02 0.21002,-0.2l0.10999,-1.08c0.02002,-0.08 0.56,-0.14 1.32001,-0.14l1.98999,0c0.04999,0 0.07999,0.6 0.07999,1.22c0,1.46 -0.04999,7.21 -0.17999,7.21l-0.87,0c-0.22,0 -0.25998,0.01 -0.25998,0.21c0,0.24 0.00998,0.29 0.20999,0.29c0.32001,0 1.29999,-0.04 1.72,-0.04c0.41998,0 1.35999,0.04 1.67999,0.04c0.17001,0 0.19,-0.07 0.19,-0.28c0,-0.16 -0.01999,-0.22 -0.19,-0.22l-1,0c-0.01999,0 -0.01999,-0.42 -0.01999,-0.87c0,-1.75 0.07999,-5.35 0.07999,-5.39c0.01001,-0.74 0.01001,-2.17 0.11002,-2.17l1.60999,0c0.72,0 1.54001,0.03 1.54001,0.1c0,0.14 -0.04001,1.05 -0.04001,1.12c0,0.15 0.07001,0.2 0.25,0.2c0.19998,0 0.26999,0 0.26999,-0.14c0,-1.1 0.05002,-1.63 0.05002,-1.89c0,-0.2 -0.08002,-0.2 -0.28,-0.2c-0.14999,0 -0.21002,0.04 -0.22,0.22c0,0.07 -0.64001,0.12 -1.48001,0.12l-5,0c-0.66,0 -1.47,0 -1.47,-0.07l0,-0.14c0,-0.13 -0.13,-0.13 -0.22998,-0.13c-0.22,0 -0.25,0.06 -0.26001,0.25c-0.06,0.7 -0.23001,1.78 -0.23001,1.82zm26.52002,2.93c0,0.42 0.31,0.61 0.62,0.61c0.39999,0 0.88998,-0.32 0.88998,-0.82c0,-0.44 -0.31998,-0.6 -0.62997,-0.6c-0.35004,0 -0.88,0.28 -0.88,0.81zm19,4.45c0,0.24 0.03,0.29 0.22,0.29c0.23999,0 0.73999,-0.04 1.16,-0.04c0.41998,0 0.90997,0.04 1.23999,0.04c0.16,0 0.19,-0.07 0.19,-0.28c0,-0.16 -0.03,-0.22 -0.19,-0.22l-0.97,0c-0.06,0 -0.07001,-0.64 -0.07001,-1.39c0,-1.83 0.04001,-4.66 0.11002,-6.51c0.03,-0.4 0.06,-0.37 0.19998,-0.01l3.26001,8.05c0.10001,0.22 0.16998,0.42 0.28,0.42c0.10001,0 0.16998,-0.11 0.25,-0.29c0.34,-0.66 0.52002,-0.7 0.79001,-1.36l2.59,-6.62c0.12,-0.31 0.16,-0.45 0.17999,0c0.03,1.19 0.07001,4 0.07001,5.27c0,1.25 -0.04001,2.44 -0.10001,2.44l-0.63,0c-0.22,0 -0.28998,0.01 -0.28998,0.21c0,0.24 0.01999,0.29 0.21997,0.29c0.20001,0 0.89999,-0.04 1.50003,-0.04c0.41998,0 1.16998,0.04 1.49997,0.04c0.16,0 0.19003,-0.07 0.19003,-0.28c0,-0.18 -0.05002,-0.22 -0.22003,-0.22l-0.72998,0c-0.10999,0 -0.21002,-3.74 -0.21002,-6.15l0,-1.26c0,-0.6 0.03003,-1 0.07004,-1.07l0.65997,0c0.22,0 0.26001,-0.02 0.26001,-0.21c0,-0.24 -0.01001,-0.3 -0.21002,-0.3c-0.31998,0 -1,0.04 -1.41998,0.04l-0.67999,0c-0.22,0 -0.25,0.06 -0.35999,0.35l-2.74002,7.14c-0.09,0.23 -0.12,0.3 -0.22998,0.02l-2.94,-7.34c-0.07001,-0.18 -0.12003,-0.21 -0.26001,-0.21c-0.09003,0 -0.58002,0.04 -0.89001,0.04c-0.5,0 -1.35001,-0.04 -1.54999,-0.04c-0.14001,0 -0.14001,0.07 -0.14001,0.28c0,0.17 0,0.23 0.14001,0.23l0.69998,0c0.27002,0 0.27002,0.02 0.27002,0.14c0,0.98 -0.21002,6.1 -0.26001,6.95c-0.04001,0.76 -0.04001,1.39 -0.09,1.39l-0.58002,0c-0.22,0 -0.28998,0.01 -0.28998,0.21zm19.66998,-4.24c0,3.02 2.34003,4.65 4.59003,4.65c2.78998,0 4.75998,-1.91 4.75998,-4.74c0,-2.73 -1.75,-4.95 -4.54999,-4.95c-2.60001,0 -4.80002,1.99 -4.80002,5.04zm1.40002,-0.38c0,-2.13 1.28998,-4.19 3.25998,-4.19c2.24002,0 3.32001,2.23 3.32001,4.36c0,2.14 -1.11002,4.38 -3.38,4.38c-1.97998,0 -3.19998,-2.04 -3.19998,-4.55zm15.98999,4.69c0,0.17 0.01001,0.24 0.19,0.24c0.15997,0 1.39001,-0.06 1.78,-0.06c0.85001,0 1.73999,0.06 2.59,0.06c2.62,0 5.01001,-1.63 5.01001,-4.79c0,-3.02 -2.34,-4.84 -5.37,-4.84c-0.56,0 -1.82001,0.16 -2.86002,0.16c-0.48001,0 -0.94,-0.01 -0.99002,-0.01c-0.18997,0 -0.19998,0.1 -0.19998,0.27c0,0.19 0.07001,0.21 0.19998,0.21l0.96002,-0.03c0.03,0 0.03,0.53 0.03,1.05c0,1.19 -0.08002,7.49 -0.16998,7.49l-0.89001,0c-0.19,0 -0.28,0.01 -0.28,0.25zm2.57001,-1.06c0,-1.94 0,-3.88 0.01999,-5.8c0,-0.57 0.04001,-1.99 0.08002,-2c0.28998,-0.07 0.88,-0.09 1.22998,-0.09c2.56,0 4.17001,2.24 4.17001,4.22c0,1.22 -0.04001,4.52 -4.71002,4.52c-0.26999,0 -0.67999,0 -0.76999,-0.04c-0.01999,-0.02 -0.01999,-0.42 -0.01999,-0.81zm15.10999,-7.89c0,0.24 0.08002,0.26 0.25,0.26l0.53,0c0.06,0 0.06,0.35 0.06,0.78c0,1.11 -0.01999,4.41 -0.01999,4.87c0,1.71 0.26001,3.38 3.10999,3.38c1.08002,0 2.24002,-0.42 2.90002,-0.8c0.25,-0.14 0.54999,-0.28 0.63,-0.28c0.26999,0 0.53,1.02 0.87,1.02c0.31998,0 0.32999,-0.39 0.32999,-0.49c0,-0.29 0.06,-2.17 0.10001,-4.09c0.06,-2.04 0.03998,-4.39 0.16,-4.39l0.32001,0c0.22,0 0.28998,-0.02 0.28998,-0.21c0,-0.24 -0.03998,-0.3 -0.23999,-0.3c-0.13998,0 -0.67001,0.04 -1.09003,0.04c-0.41998,0 -1.21997,-0.04 -1.43997,-0.04c-0.18002,0 -0.28,0.02 -0.28,0.25c0,0.24 0.10999,0.26 0.28,0.26l0.70001,0c0.06998,0 0.07999,0.53 0.07999,1.1l0,4.27c0,2.05 0,1.98 -0.32999,2.2c-0.39001,0.27 -1.21002,0.74 -2.38,0.74c-1.98001,0 -2.77002,-0.91 -2.77002,-2.67c0,-0.59 0.07001,-5.64 0.18002,-5.64l0.91,0c0.21997,0 0.25998,-0.02 0.25998,-0.21c0,-0.24 -0.00998,-0.3 -0.21002,-0.3c-0.31998,0 -1.19998,0.04 -1.62,0.04c-0.41998,0 -1.10999,-0.04 -1.32999,-0.04c-0.17999,0 -0.25,0.02 -0.25,0.25zm17.57001,8.88c0,0.24 0.03,0.29 0.22,0.29c0.31998,0 1.29001,-0.04 1.70999,-0.04c0.42001,0 4.77002,0.04 5.10001,0.04c0.25998,0 0.32999,-0.02 0.35001,-0.19c0.04999,-0.41 0.29001,-1.77 0.29001,-1.89c0,-0.13 -0.15002,-0.16 -0.32001,-0.17c-0.10001,-0.01 -0.18002,0.03 -0.20001,0.13l-0.16998,1.2c-0.04001,0.29 -0.05002,0.27 -0.28,0.28c-0.14999,0.01 -2.66003,0.08 -4.08002,0.08c-0.04999,0 -0.09,-0.74 -0.09,-1.58l0,-3.88c0,-1.26 0.02002,-2.96 0.11002,-2.96l0.97998,0c0.24002,0 0.27002,-0.07 0.27002,-0.26c0,-0.21 -0.01001,-0.25 -0.25,-0.25c-0.32001,0 -1.26001,0.04 -1.68002,0.04c-0.42001,0 -1.35999,-0.04 -1.57999,-0.04c-0.23001,0 -0.28003,0.03 -0.28003,0.25c0,0.21 0.04001,0.26 0.23004,0.26l0.82999,0c0.03998,0 0.06998,0.53 0.06998,1.2l0,3.23c0,1.94 -0.03,4.05 -0.10999,4.05l-0.84,0c-0.23001,0 -0.28,0.03 -0.28,0.21zm15.14999,0c0,0.24 0,0.29 0.19,0.29c0.17001,0 0.49002,-0.04 1.07001,-0.04c0.60999,0 1.16,0.04 1.31,0.04c0.17001,0 0.17001,-0.07 0.17001,-0.28c0,-0.16 0,-0.22 -0.17001,-0.22l-1.07999,0c0,0 -0.01004,0 -0.01004,-0.01c0.01004,-0.3 0.78003,-2.27 1.13004,-3.15c0.07001,-0.19 0.08997,-0.23 0.29999,-0.23l2.83002,0c0.13998,0 0.13998,0.02 0.20996,0.24c0.26001,0.74 0.98001,2.86 0.98001,3.14c0,0.01 -0.01999,0.01 -0.01999,0.01l-0.77002,0c-0.21997,0 -0.23999,0.01 -0.23999,0.21c0,0.24 0.02002,0.29 0.19,0.29c0.32001,0 1.19,-0.04 1.60999,-0.04c0.42001,0 1.09003,0.04 1.30002,0.04c0.13998,0 0.15002,-0.07 0.15002,-0.28c0,-0.16 -0.01004,-0.22 -0.15002,-0.22l-0.48999,0c-0.10001,0 -1.12003,-2.84 -1.67999,-4.4l-1.67999,-4.71c-0.02002,-0.07 -0.09003,-0.13 -0.17001,-0.13c-0.13,0 -0.22,0.22 -0.31,0.41c-0.14999,0.36 -0.39001,0.49 -0.5,0.78l-1.48999,3.44c-0.18002,0.44 -1.89001,4.61 -2.01001,4.61l-0.42001,0c-0.23001,0 -0.25,0.01 -0.25,0.21zm2.88998,-4.06c0,-0.03 0.03003,-0.1 0.07001,-0.2l1.38,-3.36c0.04001,-0.11 0.07001,-0.16 0.09003,-0.16c0.01999,0 0.02997,0.02 0.06998,0.16l1.17001,3.41c0.01999,0.07 0.04001,0.11 0.04001,0.14c0,0.04 -0.03,0.05 -0.13004,0.05l-2.5,0c-0.19,0 -0.19,-0.03 -0.19,-0.04zm14.02002,-4.82c0,0.21 0.07001,0.28 0.26001,0.28l0.81998,-0.02c0.09,0 0.14001,2.84 0.14001,4.78l0,1.87c0,0.88 -0.01999,1.76 -0.06,1.76l-0.60001,0c-0.22998,0 -0.29999,0.01 -0.29999,0.21c0,0.24 0.04999,0.29 0.23999,0.29c0.13,0 0.95001,-0.04 1.37,-0.04c0.42001,0 1.19,0.04 1.52002,0.04c0.15997,0 0.19,-0.07 0.19,-0.28c0,-0.16 -0.03003,-0.22 -0.19,-0.22l-0.82004,0c-0.06998,0 -0.14999,-3 -0.14999,-3.81c0,-0.07 0,-0.11 0.11002,-0.11c0.39001,0 1,0.01 1.29001,0.01c2.23999,0.05 2.38,1.73 2.38,3.41l0,0.81c0,0.12 0.06,0.15 0.14999,0.15c0,0 1.45001,0.04 1.92001,0.04c0.16998,0 0.22998,-0.04 0.22998,-0.15c0,-0.29 -0.06,-0.35 -0.20999,-0.35l-0.64999,0c-0.10001,0 -0.12,-0.04 -0.14999,-0.87c-0.09003,-2.32 -1.46002,-2.97 -2.37003,-3.26c-0.14001,-0.04 -0.10999,-0.04 0,-0.1c0.59003,-0.26 1.91,-1.01 1.91,-2.32c0,-2 -1.69998,-2.42 -3.10001,-2.42c-0.31998,0 -1.60999,0.08 -2.03,0.08c-0.42001,0 -1.39999,-0.03 -1.62,-0.03c-0.17999,0 -0.28,0.02 -0.28,0.25zm2.41998,4.29l0,-3.4c0,-0.35 0.03003,-0.72 0.07004,-0.72c0.20999,-0.03 0.48996,-0.03 0.70999,-0.03c1.31,0 2.54999,0.82 2.54999,2.17c0,1.17 -0.54001,1.75 -1.20001,2.06c-0.03998,0.02 -0.09,0.02 -0.15997,0.02c-0.47,-0.02 -1.19,-0.02 -1.79001,-0.03c-0.17001,0 -0.18002,-0.02 -0.18002,-0.07zm23.14001,0.14c0,0.42 0.31003,0.61 0.62,0.61c0.39999,0 0.88998,-0.32 0.88998,-0.82c0,-0.44 -0.32001,-0.6 -0.63,-0.6c-0.34998,0 -0.87997,0.28 -0.87997,0.81zm19.06998,4.45c0,0.24 0.03,0.29 0.22,0.29c0.33002,0 1.29001,-0.04 1.71002,-0.04c0.41998,0 4.92999,0.04 5.25,0.04c0.12997,0 0.28,-0.02 0.28,-0.19c0,-0.42 0.03998,-1.26 0.03998,-1.96c0,-0.14 -0.14999,-0.14 -0.28,-0.14c-0.10999,0 -0.22998,0 -0.22998,0.12c-0.02002,0.55 -0.02002,0.9 -0.05002,1.25c-0.01999,0.25 -0.01999,0.28 -0.12,0.28c-0.16,0 -2.79001,0.04 -4.29001,0.04c-0.06998,0 -0.10999,-1.97 -0.14999,-3.82c0,-0.2 0.04001,-0.17 0.17999,-0.17l2.28,0c0.70001,0 0.73001,0.11 0.73001,0.21l0,0.7c0,0.14 0.17999,0.14 0.29999,0.14c0.09003,0 0.22,-0.01 0.22,-0.12c0,-0.19 -0.03,-0.69 -0.03,-1.19c0,-0.51 0.03,-1 0.03,-1.12c0,-0.12 -0.13998,-0.13 -0.23999,-0.13c-0.10999,0 -0.28,0.01 -0.28,0.14l0,0.73c0,0.17 -0.45001,0.18 -0.73001,0.18l-2.32999,0c-0.12,0 -0.13,0 -0.13,-0.18c-0.01001,-0.7 -0.03,-1.39 -0.03,-1.99c0,-0.34 0,-1.75 0.09,-1.75c1.23001,0 3.73001,0.04 3.73001,0.1c0,0.18 -0.04001,1.02 -0.04001,1.08c0,0.15 0.07001,0.21 0.25,0.21c0.20001,0 0.27002,-0.02 0.27002,-0.16c0,-1.09 0.06,-1.58 0.06,-1.85c0,-0.18 -0.09003,-0.19 -0.28,-0.19c-0.20001,0 -0.20001,0.05 -0.23001,0.21c-0.01001,0.14 0.06,0.14 -0.85001,0.14c-0.62,0 -2.76001,0.04 -3.53,0.04c-0.48999,0 -1.42999,-0.04 -1.53,-0.04c-0.12,0 -0.17999,0.05 -0.17999,0.24c0,0.23 0.07001,0.25 0.23999,0.25l0.66,0c0.04999,0 0.12,1.05 0.12,1.97c0,0.09 0.06,2.56 0.06,4.12l0,1.34c0,0.67 -0.03,1.01 -0.06,1.01l-0.85001,0c-0.22,0 -0.28,0.03 -0.28,0.21zm15.05002,0.04c0,0.23 0.07999,0.25 0.26999,0.25c0.22,0 0.73999,-0.04 1.16,-0.04c0.42001,0 0.84,0.04 1.16,0.04c0.19998,0 0.23999,-0.05 0.23999,-0.29c0,-0.2 -0.07001,-0.21 -0.29999,-0.21l-0.77002,0c-0.15997,0 -0.09,-0.07 0.03,-0.28c0.53,-0.87 1.88,-2.81 2.28,-3.39c0.05002,-0.07 0.07001,-0.05 0.12003,0.02c0.53,0.89 1.66,2.77 2.03,3.5c0.06998,0.11 0.04999,0.15 -0.07001,0.15l-0.70001,0c-0.22998,0 -0.29999,0.01 -0.29999,0.21c0,0.24 0.04001,0.29 0.23999,0.29c0.32001,0 1.20001,-0.04 1.62,-0.04c0.42001,0 1.24002,0.04 1.46002,0.04c0.22,0 0.26999,-0.01 0.26999,-0.25c0,-0.24 -0.03,-0.25 -0.29999,-0.25l-0.47,0c-0.09,0 -2.54001,-3.86 -2.97,-4.55c-0.03,-0.04 -0.04001,-0.1 0,-0.15c0.28,-0.42 1.28998,-1.7 2.10999,-2.89c0.31,-0.45 0.62,-0.82 0.66,-0.82l0.32001,0c0.16998,0 0.26999,-0.02 0.26999,-0.26c0,-0.22 -0.09,-0.25 -0.26999,-0.25c-0.22,0 -0.64001,0.04 -1.06,0.04c-0.51001,0 -0.87,-0.04 -1.09,-0.04c-0.20001,0 -0.24002,0.06 -0.24002,0.3c0,0.19 0.07001,0.21 0.29001,0.21l0.79001,0l0,0.01c0,0.21 -0.42001,0.9 -0.89001,1.58c-0.12,0.2 -0.88,1.36 -1.13998,1.74c-0.03,0.04 -0.05002,0.05 -0.06,0.05c-0.03,0 -0.08002,-0.11 -0.13,-0.16c-0.45999,-0.82 -1.34,-2.38 -1.62,-3.07c-0.04001,-0.11 -0.10001,-0.15 0.06998,-0.15l0.57001,0c0.23001,0 0.30002,-0.02 0.30002,-0.21c0,-0.24 -0.02002,-0.3 -0.21002,-0.3c-0.31998,0 -0.97,0.04 -1.38998,0.04c-0.42001,0 -1.44,-0.04 -1.66,-0.04c-0.19,0 -0.26999,0.02 -0.26999,0.25c0,0.24 0.10999,0.26 0.28,0.26l0.54999,0c0.07999,0 2.39999,3.79 2.60999,4.14c0.07001,0.1 0.09003,0.14 0.02002,0.24c-0.67001,0.87 -1.39999,1.73 -2.02002,2.64c-0.5,0.73 -0.93997,1.39 -1.00998,1.39l-0.51001,0c-0.16998,0 -0.26999,0.01 -0.26999,0.25zm16.09,-7.42c0,0.16 0.17999,0.16 0.29999,0.16c0.16,0 0.20001,-0.02 0.21002,-0.2l0.12,-1.08c0.00998,-0.08 0.56,-0.14 1.31,-0.14l1.98999,0c0.06,0 0.08002,0.6 0.08002,1.22c0,1.46 -0.05002,7.21 -0.18002,7.21l-0.87,0c-0.22,0 -0.26001,0.01 -0.26001,0.21c0,0.24 0.01001,0.29 0.21002,0.29c0.31998,0 1.29999,-0.04 1.72,-0.04c0.41998,0 1.35999,0.04 1.67999,0.04c0.16998,0 0.20001,-0.07 0.20001,-0.28c0,-0.16 -0.03003,-0.22 -0.20001,-0.22l-0.98999,0c-0.03,0 -0.03,-0.42 -0.03,-0.87c0,-1.75 0.07999,-5.35 0.07999,-5.39c0.01999,-0.74 0.01999,-2.17 0.10999,-2.17l1.61002,0c0.72,0 1.54001,0.03 1.54001,0.1c0,0.14 -0.04001,1.05 -0.04001,1.12c0,0.15 0.07001,0.2 0.25,0.2c0.20001,0 0.27002,0 0.27002,-0.14c0,-1.1 0.05994,-1.63 0.05994,-1.89c0,-0.2 -0.08997,-0.2 -0.27997,-0.2c-0.16,0 -0.20999,0.04 -0.22998,0.22c0,0.07 -0.64001,0.12 -1.48001,0.12l-5,0c-0.66,0 -1.47,0 -1.47,-0.07l0,-0.14c0,-0.13 -0.13,-0.13 -0.22,-0.13c-0.22998,0 -0.26001,0.06 -0.26999,0.25c-0.06,0.7 -0.22,1.78 -0.22,1.82zm16.91995,7.38c0,0.24 0.03003,0.29 0.23004,0.29c0.32001,0 1.28003,-0.04 1.70001,-0.04c0.41998,0 4.92999,0.04 5.25,0.04c0.12994,0 0.27997,-0.02 0.27997,-0.19c0,-0.42 0.05005,-1.26 0.05005,-1.96c0,-0.14 -0.16003,-0.14 -0.28003,-0.14c-0.12,0 -0.23999,0 -0.23999,0.12c-0.02002,0.55 -0.02002,0.9 -0.03998,1.25c-0.03003,0.25 -0.03003,0.28 -0.13,0.28c-0.15002,0 -2.79004,0.04 -4.28003,0.04c-0.07001,0 -0.12,-1.97 -0.15997,-3.82c0,-0.2 0.03998,-0.17 0.17999,-0.17l2.28998,0c0.70001,0 0.72003,0.11 0.72003,0.21l0,0.7c0,0.14 0.19,0.14 0.29999,0.14c0.09998,0 0.21997,-0.01 0.21997,-0.12c0,-0.19 -0.02997,-0.69 -0.02997,-1.19c0,-0.51 0.02997,-1 0.02997,-1.12c0,-0.12 -0.13995,-0.13 -0.23999,-0.13c-0.10999,0 -0.27997,0.01 -0.27997,0.14l0,0.73c0,0.17 -0.44,0.18 -0.72003,0.18l-2.33997,0c-0.11005,0 -0.13,0 -0.13,-0.18c-0.01001,-0.7 -0.03003,-1.39 -0.03003,-1.99c0,-0.34 0,-1.75 0.08997,-1.75c1.23004,0 3.74005,0.04 3.74005,0.1c0,0.18 -0.04999,1.02 -0.04999,1.08c0,0.15 0.07001,0.21 0.25995,0.21c0.19006,0 0.26007,-0.02 0.26007,-0.16c0,-1.09 0.05994,-1.58 0.05994,-1.85c0,-0.18 -0.08997,-0.19 -0.27997,-0.19c-0.20001,0 -0.20001,0.05 -0.22998,0.21c-0.01001,0.14 0.05994,0.14 -0.85004,0.14c-0.62,0 -2.75995,0.04 -3.52997,0.04c-0.49005,0 -1.43005,-0.04 -1.52002,-0.04c-0.13,0 -0.19,0.05 -0.19,0.24c0,0.23 0.07001,0.25 0.23999,0.25l0.66003,0c0.06,0 0.13,1.05 0.13,1.97c0,0.09 0.04999,2.56 0.04999,4.12l0,1.34c0,0.67 -0.03003,1.01 -0.04999,1.01l-0.86005,0c-0.21997,0 -0.28003,0.03 -0.28003,0.21zm15.47003,0c0,0.24 0.02002,0.29 0.21002,0.29c0.17999,0 0.56,-0.04 1.17999,-0.04c0.63,0 1.19,0.04 1.51001,0.04c0.16998,0 0.16998,-0.07 0.16998,-0.28c0,-0.16 0,-0.22 -0.16998,-0.22l-1.20001,0c-0.04999,0 -0.06,-0.64 -0.06,-1.39c0,-1.33 0.01001,-3.31 0.01001,-4.8c0,-0.74 0,-1.15 0.02002,-1.71c0,-0.26 0.07001,-0.14 0.18994,0l6.89001,8.38c0.08997,0.09 0.16998,0.23 0.28003,0.23c0.10999,0 0.17999,-0.12 0.17999,-0.35c0,-0.15 0.16998,-5.89 0.19,-8.06c0,-0.42 0.02002,-0.78 0.04999,-0.78l0.63,0c0.22998,0 0.28003,-0.02 0.28003,-0.21c0,-0.24 0,-0.3 -0.19,-0.3c-0.20007,0 -0.63,0.04 -1.19006,0.04c-0.61993,0 -1.41998,-0.04 -1.51996,-0.04c-0.15997,0 -0.15997,0.07 -0.15997,0.28c0,0.17 0,0.23 0.15997,0.23l1.31,0c0.00995,0 0.00995,0.63 0.00995,0.74c0,1.41 0.03003,3.89 0.03003,5.26l0,0.59c0,0.28 -0.02002,0.36 -0.23999,0.08l-5.67999,-6.98c-0.12,-0.14 -0.14001,-0.2 -0.31,-0.2c-0.08997,0 -0.45996,0.04 -0.77002,0.04c-0.29999,0 -1.37,-0.04 -1.57001,-0.04c-0.16998,0 -0.19995,0.07 -0.19995,0.28c0,0.17 0.02997,0.23 0.19995,0.23l0.91003,0c0,0.47 -0.03998,4.83 -0.10999,7.09c-0.03003,0.9 -0.02002,1.39 -0.13,1.39l-0.64001,0c-0.22998,0 -0.27002,0.01 -0.27002,0.21zm18.33002,0.07c0,0.17 0.01001,0.24 0.19,0.24c0.16003,0 1.39001,-0.06 1.78003,-0.06c0.85999,0 1.73999,0.06 2.58997,0.06c2.62,0 5.01001,-1.63 5.01001,-4.79c0,-3.02 -2.33002,-4.84 -5.37006,-4.84c-0.56,0 -1.81995,0.16 -2.85992,0.16c-0.47003,0 -0.94,-0.01 -0.98999,-0.01c-0.18005,0 -0.20001,0.1 -0.20001,0.27c0,0.19 0.07001,0.21 0.20001,0.21l0.95996,-0.03c0.03003,0 0.03003,0.53 0.03003,1.05c0,1.19 -0.08002,7.49 -0.17004,7.49l-0.89001,0c-0.17993,0 -0.27997,0.01 -0.27997,0.25zm2.57001,-1.06c0,-1.94 0,-3.88 0.01996,-5.8c0,-0.57 0.04004,-1.99 0.08002,-2c0.30005,-0.07 0.88,-0.09 1.22998,-0.09c2.57001,0 4.18005,2.24 4.18005,4.22c0,1.22 -0.04999,4.52 -4.72003,4.52c-0.26996,0 -0.66998,0 -0.77002,-0.04c-0.01996,-0.02 -0.01996,-0.42 -0.01996,-0.81zm14.40997,0.99c0,0.24 0,0.29 0.20001,0.29c0.16003,0 0.48999,-0.04 1.06,-0.04c0.62,0 1.16003,0.04 1.32001,0.04c0.16003,0 0.16003,-0.07 0.16003,-0.28c0,-0.16 0,-0.22 -0.16003,-0.22l-1.08002,0c0,0 -0.02002,0 -0.02002,-0.01c0.02002,-0.3 0.79004,-2.27 1.14001,-3.15c0.07001,-0.19 0.08002,-0.23 0.28998,-0.23l2.83008,0c0.13995,0 0.13995,0.02 0.20996,0.24c0.26996,0.74 0.97998,2.86 0.97998,3.14c0,0.01 -0.01001,0.01 -0.01001,0.01l-0.76996,0c-0.23004,0 -0.24005,0.01 -0.24005,0.21c0,0.24 0.01001,0.29 0.18005,0.29c0.32001,0 1.19,-0.04 1.60999,-0.04c0.42004,0 1.09003,0.04 1.29999,0.04c0.14001,0 0.16003,-0.07 0.16003,-0.28c0,-0.16 -0.02002,-0.22 -0.16003,-0.22l-0.48999,0c-0.09998,0 -1.12,-2.84 -1.67999,-4.4l-1.67999,-4.71c-0.01001,-0.07 -0.08002,-0.13 -0.16998,-0.13c-0.12,0 -0.22003,0.22 -0.30005,0.41c-0.15997,0.36 -0.39996,0.49 -0.50995,0.78l-1.48004,3.44c-0.17999,0.44 -1.88995,4.61 -2.02002,4.61l-0.41998,0c-0.21997,0 -0.25,0.01 -0.25,0.21zm2.90002,-4.06c0,-0.03 0.02997,-0.1 0.07001,-0.2l1.37,-3.36c0.03998,-0.11 0.07001,-0.16 0.09998,-0.16c0.01001,0 0.02997,0.02 0.07001,0.16l1.15997,3.41c0.03003,0.07 0.04004,0.11 0.04004,0.14c0,0.04 -0.03003,0.05 -0.12,0.05l-2.51001,0c-0.17999,0 -0.17999,-0.03 -0.17999,-0.04zm14.00995,-4.82c0,0.24 0.09003,0.28 0.25006,0.28l0.85999,-0.02c0.04999,0 0.10999,1.75 0.10999,3.34l0,4.52c0,0.3 -0.00995,0.55 -0.03998,0.55l-0.72998,0c-0.22003,0 -0.29004,0.01 -0.29004,0.21c0,0.24 0.02002,0.29 0.22003,0.29c0.13,0 1.08002,-0.04 1.5,-0.04c0.17999,0 0.69995,0.03 1.33997,0.03c1.56,0 3.96002,-0.24 3.96002,-2.44c0,-1.96 -1.82001,-2.29 -2.5,-2.39c-0.09003,-0.01 -0.10004,-0.01 -0.10004,-0.03c0,-0.01 0.03998,-0.03 0.11005,-0.05c0.64996,-0.24 2.08997,-0.86 2.08997,-2.22c0,-1.73 -1.47003,-2.29 -3.15002,-2.29c-0.57996,0 -1.17993,0.04 -1.71997,0.04c-0.41998,0 -1.42999,-0.03 -1.65997,-0.03c-0.17999,0 -0.25006,0.02 -0.25006,0.25zm2.45007,4.68c0,-0.07 0,-0.11 0.10992,-0.11l0.48004,0c0.62,0 1.26001,0.01 1.64001,0.14c0.87,0.29 1.19,0.94 1.19,1.92c0,1.03 -0.46002,2.04 -2.48004,2.04l-0.83997,0c-0.08002,0 -0.09998,-3.16 -0.09998,-3.99zm0,-0.6l0,-0.67c0,-1.05 0.01996,-3.21 0.06,-3.24c0.04993,-0.03 0.35999,-0.05 0.57001,-0.05c1.41998,0 2.44,0.78 2.44,2.14c0,1.15 -0.73004,1.69 -1.36005,1.89c-0.07996,0.03 -0.17999,0.04 -0.26996,0.04c-0.08002,0 -0.22003,-0.01 -0.46002,-0.01l-0.80005,0c-0.17993,0 -0.17993,-0.02 -0.17993,-0.1zm12.83997,4.8c0,0.24 0.03003,0.29 0.22003,0.29c0.32996,0 1.28998,-0.04 1.70996,-0.04c0.41998,0 4.77997,0.04 5.10004,0.04c0.25995,0 0.32996,-0.02 0.34998,-0.19c0.04999,-0.41 0.29004,-1.77 0.29004,-1.89c0,-0.13 -0.15002,-0.16 -0.32007,-0.17c-0.09998,-0.01 -0.17993,0.03 -0.19995,0.13l-0.16003,1.2c-0.04999,0.29 -0.06,0.27 -0.28003,0.28c-0.15997,0.01 -2.65997,0.08 -4.08997,0.08c-0.03998,0 -0.08997,-0.74 -0.08997,-1.58l0,-3.88c0,-1.26 0.01996,-2.96 0.12,-2.96l0.97998,0c0.23004,0 0.26001,-0.07 0.26001,-0.26c0,-0.21 -0.01001,-0.25 -0.25,-0.25c-0.32001,0 -1.26001,0.04 -1.67999,0.04c-0.41998,0 -1.35999,-0.04 -1.58002,-0.04c-0.22998,0 -0.28003,0.03 -0.28003,0.25c0,0.21 0.04004,0.26 0.23999,0.26l0.82007,0c0.03998,0 0.07001,0.53 0.07001,1.2l0,3.23c0,1.94 -0.03003,4.05 -0.11005,4.05l-0.84003,0c-0.21997,0 -0.27997,0.03 -0.27997,0.21zm15.28998,0c0,0.24 0.03003,0.29 0.22003,0.29c0.32001,0 1.28998,-0.04 1.71002,-0.04c0.41998,0 4.92999,0.04 5.24994,0.04c0.13007,0 0.28003,-0.02 0.28003,-0.19c0,-0.42 0.04004,-1.26 0.04004,-1.96c0,-0.14 -0.15002,-0.14 -0.28003,-0.14c-0.10999,0 -0.24005,0 -0.24005,0.12c-0.00995,0.55 -0.00995,0.9 -0.03992,1.25c-0.03003,0.25 -0.03003,0.28 -0.12006,0.28c-0.15997,0 -2.78998,0.04 -4.28998,0.04c-0.07001,0 -0.11005,-1.97 -0.14996,-3.82c0,-0.2 0.03992,-0.17 0.17999,-0.17l2.27997,0c0.70001,0 0.73004,0.11 0.73004,0.21l0,0.7c0,0.14 0.17999,0.14 0.28998,0.14c0.09998,0 0.22998,-0.01 0.22998,-0.12c0,-0.19 -0.03003,-0.69 -0.03003,-1.19c0,-0.51 0.03003,-1 0.03003,-1.12c0,-0.12 -0.14001,-0.13 -0.23999,-0.13c-0.10999,0 -0.27997,0.01 -0.27997,0.14l0,0.73c0,0.17 -0.45007,0.18 -0.73004,0.18l-2.33997,0c-0.11005,0 -0.12,0 -0.12,-0.18c-0.02002,-0.7 -0.03003,-1.39 -0.03003,-1.99c0,-0.34 0,-1.75 0.07996,-1.75c1.24005,0 3.73999,0.04 3.73999,0.1c0,0.18 -0.03998,1.02 -0.03998,1.08c0,0.15 0.07001,0.21 0.25006,0.21c0.19995,0 0.26996,-0.02 0.26996,-0.16c0,-1.09 0.04999,-1.58 0.04999,-1.85c0,-0.18 -0.07996,-0.19 -0.28003,-0.19c-0.18994,0 -0.18994,0.05 -0.21997,0.21c-0.01001,0.14 0.06,0.14 -0.84998,0.14c-0.62006,0 -2.76001,0.04 -3.53003,0.04c-0.48999,0 -1.42999,-0.04 -1.52997,-0.04c-0.12006,0 -0.17999,0.05 -0.17999,0.24c0,0.23 0.06995,0.25 0.23999,0.25l0.65997,0c0.04999,0 0.12,1.05 0.12,1.97c0,0.09 0.06,2.56 0.06,4.12l0,1.34c0,0.67 -0.02997,1.01 -0.06,1.01l-0.84998,0c-0.23004,0 -0.28003,0.03 -0.28003,0.21z"/>
  </g>
 </g>
</svg>