<!--
font name: Fertigo_PRO
font link: https://www.fontspring.com/fonts/exljbris/fertigo-pro/fertigo-pro-regular
font author: Exljbris
font author site: https://www.exljbris.com/

icon designer: Roberto Chiaveri
icon designer link: /robertochiaveri
        

fontColor: {"gradient-0":"#0D7CE9","gradient-1":"#28C4E0"}
bgColor: {"hex":"transparent"}
iconColor: {"gradient-0":"#0D7CE9","gradient-1":"#28C4E0"}
sloganColor: {"hex":"#0D7CE9"}
-->
<svg width="250" height="100" xmlns="http://www.w3.org/2000/svg">
 <!---->
 <defs>
  <!---->
  <linearGradient y2="0%" x2="100%" y1="0%" x1="0%" id="4ac835a4-184e-465d-b92b-7e4b29f60261" gradientTransform="rotate(25)">
   <stop stop-color="#0D7CE9" offset="0%"/>
   <stop stop-color="#28C4E0" offset="100%"/>
  </linearGradient>
 </defs>
 <defs>
  <!---->
 </defs>

 <defs>
  <!---->
 </defs>
 <g>
  <title>background</title>
  <rect fill="none" id="canvas_background" height="102" width="252" y="-1" x="-1"/>
 </g>
 <g>
  <title>Layer 1</title>
  <rect id="svg_1" class="logo-background-square" height="100" width="250" y="1" x="1" fill="transparent"/>
  <g transform="matrix(5.84552 0 0 5.84552 62.0691 109.027)" fill="#0D7CE9" id="d16ce35a-4cdb-47a5-87d9-dc876631df02">
   <path id="svg_2" d="m5.07631,-3.29044c0,0.75 0.42,0.95 0.91,0.95c0.29,0 0.58,-0.08 0.93,-0.14c-0.16,-1.29 -0.21,-2.56 -0.22,-3.82c0.24,0.04 0.5,0.05 0.76,0.05c1.9,0 3.93,-1.07 3.93,-3.17c0,-1.43 -1.12,-2.86 -3.67,-2.86l-1.99,0c-0.33,0 -0.86,-0.04 -0.86,-0.04c0,0 0.07,0.15 0.14,1.51c0.04,0.9 0.07,2.02 0.07,3.18l0,4.34zm1.61,-3.67l0,-1.05c0,-1.16 0.05,-3.53 0.05,-3.53l0.44,0c1.68,0 2.46,1.11 2.46,2.24c0,1.18 -0.85,2.37 -2.46,2.37c-0.16,0 -0.33,0 -0.49,-0.03zm5.62,1.15c0,1.82 1.21,3.54 3.56,3.54c2.41,0 3.7,-2 3.7,-4.09c0,-1.69 -1.21,-3.33 -3.56,-3.33c-2.42,0 -3.7,1.88 -3.7,3.88zm1.71,-0.24c0,-1.5 0.59,-3 1.84,-3c1.34,0 2,1.47 2,2.94c0,1.6 -0.6,3.2 -1.85,3.2c-1.33,0 -1.99,-1.56 -1.99,-3.14zm8.47,2.56c0.37,1.18 1.81001,1.22 1.81001,1.22l0.49,-1.06c0.35,-0.76 0.85,-1.81 1.01,-2.43l0.07,0c0.29,0.93 0.5,1.67 0.68,2.27c0.37,1.18 1.89,1.22 1.89,1.22l2.12,-5.88c0.37,-1.05 0.72,-1.26 0.72,-1.26l0,-0.07c0,0 -0.21,-0.11 -0.64,-0.11c-1.22001,0 -0.49,0.54 -2.38,5.96l0,0.02l-0.07,0c-0.63,-1.56 -1.4,-4.12 -1.68,-5.32c-0.1,-0.44 -0.63,-0.66 -1.11,-0.66c-0.56,0 -0.81,0.12 -0.81,0.12c0,0 0.73,1.49 0.73,2.33c0,0.75 -0.25,1.59 -1.12,3.53l-0.07,0c-0.62,-1.56 -1.53,-4.12 -1.82,-5.32c-0.11,-0.44 -0.63,-0.66 -1.11,-0.66c-0.49,0 -0.77,0.05 -1.05,0.11l0,0.07c0.27,0.22 0.42,0.55 0.56,0.84c0.52,1.12 1.39,3.81 1.78,5.08z"/>
  </g>
  <g transform="matrix(0.964697 0 0 0.964697 12.923 73.6106)" fill="url(#4ac835a4-184e-465d-b92b-7e4b29f60261)" id="2942cba9-060b-4c3f-b817-dc26fe81c89c">
   <path id="svg_3" d="m9.91768,-67.14058c-4.776,1.17101 -3.477,7.049 0.449,5.098c0.07,0 22.796,-7.63699 37.68999,16.029c1.83,2.908 4.276,-0.855 3.284,-2.92c-3.13599,-6.528 -16.66299,-24.28098 -41.42399,-18.208l0.001,0.001zm-10.801,48.948c-2.816,-18.09901 4.768,-30.09701 14.204,-32.52901c22.46,-5.79 33.57199,21.898 33.57199,36.46301c0,14.212 -10.142,20.47001 -17.37099,19.836c-12.146,-1.067 -17.865,-13.772 -19.63,-23.664c-0.431,-2.411 -3.778,-20.96701 11.22,-21.07901c10.214,-0.075 15.956,17.60201 15.286,24.41401c-0.438,4.451 -2.527,9.10001 -7.254,8.685c-6.302,-0.553 -8.614,-9.611 -8.932,-13.19001c-0.07,-0.568 -1.36,-7.587 2.072,-6.993c2.367,0.41 2.946,4.816 3.027,5.104c0.33,1.057 0.554,2.385 0.69,3.612c0.144,1.04 -0.091,2.234 0.327,3.392c0.41,1.345 1.588,2.102 2.608,2.192c0.834,0.073 2.426,-0.78 2.48,-2.084c0.108,-6.936 -2.796,-19.278 -10.98,-18.552c-4.602,0.408 -7.029,5.676 -5.718,14.17c1.277,8.272 5.584,17.367 14.098,18.11401c9.36,0.822 13.13,-7.713 13.13,-14.144c0,-18.338 -12.402,-35.16801 -27.059,-30.13c-8.417,2.893 -13.525,12.056 -10.65,27c2.98,15.49201 12.146,29.707 25.445,29.322c24.348,-0.70599 22.65699,-26.64 22.65699,-26.64c0,-23.83001 -19.30799,-51.401 -44.06899,-40.66501c-10.208,4.427 -18.192,19.353 -15.178,37.56401c7.646,46.19699 41.032,40.89 42.591,40.65001l0.117,0.013c5.327,-0.771 4.238,-6.711 0.34,-6.044c-22.105,3.785 -34.039,-15.648 -37.022,-34.81601l-0.001,-0.001z"/>
  </g>
 </g>
</svg>