<svg width="502" height="202" xmlns="http://www.w3.org/2000/svg">
 <!---->
 <defs>
  <!---->
  <linearGradient y2="0%" x2="100%" y1="0%" x1="0%" id="7687a1b4-2c97-4395-bb3b-4abc9d1a220d" gradientTransform="rotate(25)">
   <stop stop-color="#0D7CE9" offset="0%"/>
   <stop stop-color="#28C4E0" offset="100%"/>
  </linearGradient>
 </defs>
 <defs>
  <!---->
 </defs>

 <defs>
  <!---->
 </defs>
 <g>
  <title>background</title>
  <rect fill="none" id="canvas_background" height="204" width="504" y="-1" x="-1"/>
 </g>
 <g>
  <title>Layer 1</title>
  <rect x="1" y="1" stroke="null" id="svg_1" class="logo-background-square" height="200" width="500" fill="transparent"/>
  <g transform="matrix(11.3316 0 0 11.3316 62.3591 186.611)" fill="#0D7CE9" id="9c65bc84-6eff-41a3-b8aa-0eeef671f546">
   <path id="svg_2" d="m9.802576,-3.579517c0,0.75 0.42,0.95 0.910001,0.95c0.29,0 0.58,-0.08 0.929999,-0.14c-0.16,-1.29 -0.209999,-2.56 -0.219999,-3.82001c0.24,0.040009 0.5,0.05001 0.759999,0.05001c1.900003,0 3.930001,-1.07 3.930001,-3.169978c0,-1.430001 -1.119997,-2.860001 -3.670001,-2.860001l-1.99,0c-0.33,0 -0.860001,-0.039999 -0.860001,-0.039999c0,0 0.070001,0.149999 0.14,1.509998c0.040001,0.900002 0.07,2.02 0.07,3.17998l0,4.34zm1.610001,-3.67l0,-1.050009c0,-1.15997 0.05,-3.529969 0.05,-3.529969l0.44,0c1.68,0 2.460004,1.11 2.460004,2.24c0,1.17998 -0.850003,2.369978 -2.460004,2.369978c-0.16,0 -0.33,0 -0.49,-0.03zm5.619999,1.15c0,1.82 1.210001,3.54 3.560001,3.54c2.41,0 3.700001,-2 3.700001,-4.09c0,-1.69 -1.210001,-3.329979 -3.560001,-3.329979c-2.42,0 -3.700001,1.87998 -3.700001,3.879979zm1.710001,-0.24001c0,-1.5 0.59,-2.999969 1.84,-2.999969c1.34,0 2,1.469979 2,2.93998c0,1.6 -0.6,3.2 -1.85,3.2c-1.33,0 -1.99,-1.56 -1.99,-3.14001zm8.46998,2.56001c0.369999,1.18 1.809999,1.22 1.809999,1.22l0.49,-1.06c0.35,-0.76 0.85,-1.81 1.01,-2.43l0.07,0c0.290001,0.93 0.5,1.67 0.68,2.27c0.370001,1.18 1.890003,1.22 1.890003,1.22l2.119999,-5.879999c0.369999,-1.04998 0.720001,-1.25998 0.720001,-1.25998l0,-0.069999c0,0 -0.210003,-0.110001 -0.639999,-0.110001c-1.220001,0 -0.490002,0.539999 -2.380001,5.959978l0,0.02l-0.07,0c-0.630001,-1.56 -1.400003,-4.119998 -1.680002,-5.319978c-0.1,-0.440001 -0.630001,-0.66 -1.110001,-0.66c-0.560001,0 -0.809999,0.119999 -0.809999,0.119999c0,0 0.73,1.489981 0.73,2.329979c0,0.75 -0.25,1.589991 -1.119999,3.53l-0.070002,0c-0.619999,-1.56 -1.529999,-4.119998 -1.82,-5.319978c-0.109999,-0.440001 -0.629999,-0.66 -1.109999,-0.66c-0.490002,0 -0.77,0.05 -1.050001,0.110001l0,0.069999c0.27,0.219999 0.42,0.55 0.559999,0.840001c0.52,1.119978 1.390001,3.809978 1.780001,5.079978z"/>
  </g>
  <g transform="matrix(1.97804 0 0 1.93407 35.76 142.064)" fill="url(#7687a1b4-2c97-4395-bb3b-4abc9d1a220d)" id="8d689571-7e6d-4886-b56d-5b5933b11ca6">
   <path id="svg_3" d="m15.809903,-65.828354c-4.776,1.170898 -3.477,7.048901 0.44901,5.0979c0.07,0 22.795897,-7.636902 37.689898,16.029003c1.830002,2.907997 4.276001,-0.855 3.284,-2.920002c-3.135998,-6.528 -16.662899,-24.280899 -41.423908,-18.207901l0.001,0.000999zm-10.801002,48.948002c-2.816,-18.099098 4.768002,-30.097099 14.204008,-32.529099c22.459904,-5.790001 33.571899,21.897999 33.571899,36.463098c0,14.211981 -10.141998,20.469981 -17.370899,19.835981c-12.146099,-1.067 -17.864998,-13.772031 -19.630007,-23.664081c-0.431,-2.410999 -3.778001,-20.966999 11.220007,-21.078999c10.213902,-0.075001 15.955902,17.601999 15.285896,24.413998c-0.437996,4.451051 -2.526993,9.100081 -7.253899,8.685081c-6.302097,-0.552999 -8.614098,-9.611081 -8.932098,-13.190081c-0.07,-0.5679 -1.359999,-7.587 2.072001,-6.993c2.367001,0.41 2.9461,4.816 3.027,5.104c0.33,1.0571 0.553999,2.385 0.6901,3.612001c0.143902,1.039998 -0.091101,2.233998 0.327,3.391998c0.409901,1.345 1.587902,2.102 2.607899,2.191999c0.834,0.073 2.426102,-0.78 2.480003,-2.084c0.107998,-6.935999 -2.796001,-19.278002 -10.980001,-18.551899c-4.601999,0.4079 -7.028898,5.6759 -5.718,14.169899c1.277,8.27205 5.584,17.36708 14.098,18.114081c9.360004,0.822 13.130001,-7.712999 13.130001,-14.14408c0,-18.337998 -12.402,-35.168 -27.058998,-30.129998c-8.41691,2.892998 -13.524912,12.056 -10.64991,26.999998c2.98,15.492079 12.145908,29.707 25.445007,29.3221c24.3479,-0.706 22.656898,-26.6401 22.656898,-26.6401c0,-23.830001 -19.307999,-51.400901 -44.068906,-40.665c-10.208001,4.427002 -18.19209,19.353001 -15.178041,37.564001c7.646039,46.196999 41.03195,40.889999 42.590952,40.65l0.116997,0.0131c5.327,-0.771 4.238003,-6.7111 0.34,-6.0441c-22.105,3.785 -34.038909,-15.64792 -37.021909,-34.816l-0.001,-0.0009z"/>
  </g>
  <g transform="matrix(1.27537 0 0 1.27537 51.4357 338.282)" fill="#0D7CE9" id="d7d2fc62-ddef-43bc-8eca-07e06d748669">
   <path id="svg_4" d="m95.407501,-122.004196c0.350006,0.059998 0.650009,0.139999 0.950005,0.139999c0.489998,0 0.909996,-0.199997 0.909996,-0.949997c0,-1.540009 -0.069992,-3.400009 -0.069992,-3.740005l0.189995,0.059998c1.220001,0.350006 2.299995,4.570007 4.510002,4.570007c0.410004,0 1.229996,-0.180008 1.229996,-0.180008l0,-0.099991c-1.169998,-0.669998 -3.539993,-4.200012 -3.539993,-4.200012l0,-0.069992c0,0 2.269997,-0.330002 2.269997,-2.809998c0,-1.399994 -1.200005,-2.519989 -3.630005,-2.519989l-1.729996,0c-0.580002,0 -1.120003,-0.029999 -1.120003,-0.029999c0,0 0.070007,0.139999 0.139999,1.499985c0.040009,0.899994 0.070007,3.289993 0.070007,4.449997c0,3.490005 -0.180008,3.880005 -0.180008,3.880005zm1.790009,-5.219994c0,-1.040016 0.009995,-2.659996 0.049995,-3.839989l0.439995,0c1.860001,0 2.520004,0.949997 2.520004,2.069977c0,1.420006 -0.809998,1.919998 -1.809998,1.919998c-0.389999,0 -0.800003,-0.009995 -1.199997,-0.149986zm6.799995,0.55999c0,2.5 1.639999,4.869995 4.870003,4.869995c3.339996,0 5.069992,-2.759995 5.069992,-5.629997c0,-2.340004 -1.639992,-4.589989 -4.869995,-4.589989c-3.330002,0 -5.07,2.589996 -5.07,5.349991zm1.810005,-0.339996c0,-2.109985 1.049995,-4.240005 3.049995,-4.240005c2.139999,0 3.279999,2.089996 3.279999,4.160004c0,2.240005 -1.07,4.520004 -3.07,4.520004c-2.110001,0 -3.259995,-2.200012 -3.259995,-4.440002zm10.259995,5c2.300003,0 2.729996,0.169998 3.720001,0.169998c2.049995,0 3.279999,-1.330002 3.279999,-2.970001c0,-1.330002 -1.050003,-2.100006 -2.240005,-2.389999l0,-0.070015c0.87001,-0.579971 1.320007,-1.499992 1.320007,-2.269966c0,-1.190002 -0.93,-2.270004 -3.290001,-2.270004l-1.739998,0c-0.570007,0 -1.120003,-0.029999 -1.120003,-0.029999c0,0 0.07,0.139999 0.139999,1.499985c0.030006,0.670013 0.080002,3.610001 0.080002,4.449997c0,3.490005 -0.150002,3.880005 -0.150002,3.880005zm1.759995,-5.57c0.020004,-1.259987 0.050003,-2.369987 0.050003,-3.469994c0,0 0.070007,-0.019989 0.150002,-0.019989l0.279999,0c1.919998,0 2.379997,0.949997 2.379997,2.069977c0,0.540009 -0.169998,1.110008 -0.459999,1.629997c-0.760002,-0.159988 -1.599998,-0.199982 -2.400002,-0.209991zm0.050003,4.209999c-0.019997,-0.680008 -0.050003,-1.369995 -0.050003,-1.990005c0,-0.369995 -0.009995,-0.720001 -0.009995,-1.059998c0,-0.179993 0.009995,-0.350006 0.009995,-0.520004c1.770004,0.040009 3.43,0.480011 3.43,2.330002c0,0.919998 -0.219994,1.960007 -1.899994,1.960007c-0.560005,0 -1.470001,-0.139999 -1.480003,-0.720001zm7.25,-2.900009c0,3.180008 1.649994,4.470001 3.950027,4.470001c2.679993,0 3.849991,-1.669998 3.849991,-4.549988c0,-1.18 0.110001,-3.509995 0.110001,-4.729996c0,-0.550003 -0.020004,-0.869995 -0.550003,-0.869995c-0.209991,0 -0.630005,0.130005 -0.630005,0.130005c0.160004,1.649979 0.160004,3.589996 0.160004,5.649979c0,2.279999 -1.009995,3.529999 -2.589996,3.529999c-1.610016,0 -2.610016,-1.25 -2.610016,-3.529999c0,-1.170006 0.019989,-3.929977 0.019989,-4.909988c0,-0.550003 -0.479996,-0.869995 -1.109985,-0.869995c-0.25,0 -0.770004,0.130005 -0.770004,0.130005c0,0.119995 0.169998,0.330002 0.169998,5.549973zm9.850021,3.110001c0,0.880005 2.029999,1.360001 3.220001,1.360001c1.770004,0 3.599991,-1.019989 3.599991,-2.970001c0,-3.219994 -5.019989,-2.739983 -5.019989,-4.929977c0,-0.890015 0.679993,-1.560013 1.62999,-1.560013c1.5,0 2.440002,1.440018 2.440002,1.440018l0.100006,0c0.319992,-0.320007 0.539993,-0.790009 0.539993,-1.139999c0,-0.780014 -2.029999,-1.060013 -2.779999,-1.060013c-1.770004,0 -3.5,1.019989 -3.5,2.869995c0,3.069992 5.020004,2.770004 5.020004,4.979996c0,0.759995 -0.460007,1.490005 -1.830002,1.490005c-1.880005,0 -2.979996,-1.300003 -2.979996,-1.300003l-0.100006,0c-0.130005,0.220001 -0.339996,0.569992 -0.339996,0.819992zm10.949997,0.340012c0,0.75 0.419998,0.949997 0.910004,0.949997c0.299988,0 0.589996,-0.080002 0.939987,-0.139999c-0.23999,-1.860001 -0.23999,-3.699997 -0.23999,-5.529991c0,-1.090004 0.039993,-2.140007 0.059998,-3.279991c1.539993,0.019989 2.869995,0.029999 2.869995,0.029999c0.150009,0 0.26001,-0.150009 0.26001,-0.460022c0,-0.349976 -0.050003,-0.699982 -0.050003,-0.699982c-0.240005,0.039993 -0.839996,0.139999 -1.529999,0.139999c-1.410004,0 -6.12001,-0.070023 -6.12001,-0.070023c-0.259995,0 -0.319992,0.320007 -0.319992,0.600006c0,0.25 0.040009,0.559998 0.040009,0.559998c0.299988,-0.039978 0.909988,-0.11998 1.62999,-0.11998c0.220001,0 0.559998,0 1.449997,0.009995c0,0.139999 0.020004,0.309998 0.029999,0.499985c0.040009,0.900009 0.070007,2.01001 0.070007,3.169998l0,4.340012zm10,-2.200012c0.520004,0 0.949997,-0.429993 0.949997,-0.939987c0,-0.520004 -0.429993,-0.950012 -0.949997,-0.950012c-0.509995,0 -0.940002,0.430008 -0.940002,0.950012c0,0.509995 0.430008,0.939987 0.940002,0.939987zm6.329987,3c0,0 0.320007,0.140015 0.610016,0.140015c0.48999,0 0.519989,-0.200012 0.519989,-0.960007c0,-2.289993 -0.130005,-4.849998 -0.130005,-7.040009l0.060013,-0.049973c0.169998,0.389999 0.5,0.979996 0.909988,1.679977l1.160004,2.009995c0.449997,0.770004 0.930008,1.600006 1.25,2.340012c0.040009,0.080002 0.170013,0.099991 0.290009,0.099991l0.229996,0c0,0 0.440002,-1.470001 0.849991,-2.23999l1.410004,-2.699997c0.309998,-0.590012 0.559998,-1.040009 0.650009,-1.26001l0.050003,0.040024l0,7.139984c0,0.75 0.419983,0.949997 0.910004,0.949997c0.299988,0 0.589981,-0.080002 0.939987,-0.139999c-0.240005,-1.860001 -0.240005,-3.699997 -0.240005,-5.529991c0,-1.180016 0.02002,-3.090004 0.02002,-4.30999c-0.350006,-0.070023 -0.630005,-0.070023 -0.860016,-0.070023c-0.5,0 -0.789993,0.210007 -1.069992,0.75c-0.910004,1.770004 -2.290009,4.25 -2.580002,5.040009l-0.070007,0c-0.099991,-0.26001 -0.339996,-0.740005 -0.660004,-1.31002l-1.789993,-3.169975c-0.210007,-0.369995 -0.419998,-0.720016 -0.589996,-1.050018c-0.12001,-0.220001 -0.600006,-0.259995 -1.080002,-0.259995c-0.290009,0 -0.639999,0.050018 -0.809998,0.110016c0,0 0.070007,0.110001 0.139999,1.469986c0.029999,0.670013 0.089996,3.610001 0.089996,4.449997c0,3.490005 -0.210007,3.869995 -0.210007,3.869995zm11.730011,-4.649994c0,2.5 1.639999,4.869995 4.869995,4.869995c3.330002,0 5.070007,-2.759995 5.070007,-5.629997c0,-2.340004 -1.640015,-4.589989 -4.869995,-4.589989c-3.340012,0 -5.070007,2.589996 -5.070007,5.349991zm1.799988,-0.339996c0,-2.109985 1.050003,-4.240005 3.060013,-4.240005c2.139999,0 3.270004,2.089996 3.270004,4.160004c0,2.240005 -1.059998,4.520004 -3.059998,4.520004c-2.12001,0 -3.27002,-2.200012 -3.27002,-4.440002zm10.27002,5c2.289993,0 2.949982,0.130005 4.179993,0.130005c2.699997,0 4.76001,-2.150009 4.76001,-5.040009c0,-3.800003 -3.01001,-4.889984 -5.910004,-4.889984l-3.100006,0c0,0 0.070007,0.110001 0.139999,1.469986c0.020004,0.670013 0.080002,3.610001 0.080002,4.449997c0,3.490005 -0.149994,3.880005 -0.149994,3.880005zm1.799988,-1.360001c-0.029999,-0.87001 -0.039993,-1.720001 -0.039993,-2.570007c0,-1.729988 0.039993,-5.109985 0.039993,-5.109985c0.230011,-0.019989 0.460007,-0.019989 0.690002,-0.019989c2.270004,0 4.649994,1.149979 4.649994,4.409973c0,2.160004 -1.25,3.950012 -3.410004,3.950012c-0.73999,0 -1.909988,-0.080002 -1.929993,-0.660004zm9.270004,-2.900009c0,3.180008 1.650009,4.470001 3.949997,4.470001c2.690002,0 3.850006,-1.669998 3.850006,-4.549988c0,-1.18 0.109985,-3.509995 0.109985,-4.729996c0,-0.550003 -0.009979,-0.869995 -0.549988,-0.869995c-0.209991,0 -0.630005,0.130005 -0.630005,0.130005c0.160004,1.649979 0.160004,3.589996 0.160004,5.649979c0,2.279999 -1.01001,3.529999 -2.589996,3.529999c-1.610001,0 -2.610001,-1.25 -2.610001,-3.529999c0,-1.170006 0.019989,-3.929977 0.019989,-4.909988c0,-0.550003 -0.479996,-0.869995 -1.110001,-0.869995c-0.249985,0 -0.769989,0.130005 -0.769989,0.130005c0,0.119995 0.169998,0.330002 0.169998,5.549973zm10.48999,4.26001l4.88002,0.069992c1.019989,0 1.329987,-0.080002 1.329987,-0.979996c0,-0.110001 0,-0.240005 -0.009995,-0.389999c-0.350006,0.180008 -0.970001,0.279999 -1.880005,0.309998l-2.559998,0.070007c-0.029999,-1.360001 -0.029999,-2.360001 -0.029999,-4.160004c0,-1.080002 0.069992,-2.369995 0.069992,-3.98999c0,-0.550003 -0.609985,-0.869995 -1.23999,-0.869995c-0.230011,0 -0.410004,0.059998 -0.630005,0.130005c0,0 0.069992,0.119995 0.139999,1.47998c0.039993,0.899994 0.080002,3.289993 0.080002,4.449997c0,3.490005 -0.150009,3.880005 -0.150009,3.880005zm6.530014,0c0,0 0.269989,0.139999 0.509995,0.139999c1.090012,0 1.020004,-0.830002 1.860001,-3.37001c0.589996,-0.029999 1.300003,-0.059998 2.019989,-0.059998c0.470001,0 0.960022,0.01001 1.400009,0.029999c0.330002,1.020004 0.599991,1.930008 0.779999,2.560013c0.169998,0.599991 0.669998,0.839996 1.289993,0.839996c0.490021,0 1.02002,-0.139999 1.02002,-0.139999l0,-0.070007c-0.170013,-0.080002 -0.250015,-0.25 -0.640015,-1.12999c-0.699997,-1.560013 -1.949997,-5.319992 -2.479996,-7.090012c-0.490005,-1.639984 -1.919998,-1.689987 -1.919998,-1.689987l-2.929993,8.159988c-0.51001,1.460007 -0.910004,1.75 -0.910004,1.75l0,0.070007zm2.589996,-4c0.350006,-1.110001 0.769989,-2.47998 1.37999,-4.219986l0.070007,0c0.440002,1.149994 0.990005,2.729988 1.48999,4.219986c-0.459991,0.009995 -0.949997,0.020004 -1.439987,0.020004c-0.529999,0 -1.050003,-0.01001 -1.5,-0.020004zm7.689987,4c0.350006,0.059998 0.660004,0.139999 0.949997,0.139999c0.490005,0 0.910004,-0.199997 0.910004,-0.949997c0,-1.540009 -0.069992,-3.400009 -0.069992,-3.740005l0.199997,0.059998c1.220001,0.350006 2.289993,4.570007 4.51001,4.570007c0.399994,0 1.229996,-0.180008 1.229996,-0.180008l0,-0.099991c-1.180008,-0.669998 -3.540009,-4.200012 -3.540009,-4.200012l0,-0.069992c0,0 2.259995,-0.330002 2.259995,-2.809998c0,-1.399994 -1.199997,-2.519989 -3.619995,-2.519989l-1.73999,0c-0.570007,0 -1.12001,-0.029999 -1.12001,-0.029999c0,0 0.070007,0.139999 0.139999,1.499985c0.040009,0.899994 0.070007,3.289993 0.070007,4.449997c0,3.490005 -0.180008,3.880005 -0.180008,3.880005zm1.790009,-5.219994c0,-1.040016 0.019989,-2.659996 0.060013,-3.839989l0.429977,0c1.860001,0 2.520004,0.949997 2.520004,2.069977c0,1.420006 -0.809998,1.919998 -1.800003,1.919998c-0.399979,0 -0.800003,-0.009995 -1.209991,-0.149986zm11.119995,2.209984c0.520004,0 0.949997,-0.429993 0.949997,-0.939987c0,-0.520004 -0.429993,-0.950012 -0.949997,-0.950012c-0.509995,0 -0.940002,0.430008 -0.940002,0.950012c0,0.509995 0.430008,0.939987 0.940002,0.939987zm6.399994,3.01001l4.940002,0.069992c1.020004,0 1.330002,-0.080002 1.330002,-0.979996c0,-0.110001 0,-0.240005 -0.020004,-0.389999c-0.349991,0.180008 -0.959976,0.279999 -1.869995,0.309998l-2.559982,0.070007c-0.02002,-0.860001 -0.059998,-1.610001 -0.059998,-2.37001l0,-1.459991c0,0 1.429993,0.089996 2.159988,0.089996c0.719986,0 0.809998,-0.380005 0.840012,-1.040001c0,0 -0.260025,0.140015 -0.830017,0.140015l-2.160004,0c0.020004,-1.379997 0.029999,-2.870018 0.029999,-3.439995c0,0 1,0.220001 2.660004,0.220001c1.009995,0 1.050003,-0.470016 1.139999,-1.160004c0,0 -0.960007,0.139999 -3.100006,0.139999l-2.569992,0c0,0 0.069992,0.110001 0.139999,1.469986c0.020004,0.670013 0.080002,3.610001 0.080002,4.449997c0,3.490005 -0.150009,3.880005 -0.150009,3.880005zm7.26001,-0.040009c0.270004,0.110001 0.550003,0.150009 0.800003,0.150009c0.919998,0 1.25,-0.740005 3.079987,-3.830002l0.070007,0c1.880005,3.309998 2.23999,3.830002 3.570007,3.830002c0.339996,0 0.690002,-0.050003 1.01001,-0.139999l0,-0.070007c0,0 -1.180023,-0.87999 -3.540024,-5.019989c0.949997,-1.520004 2.610001,-4.150009 3.470016,-4.610001l0,-0.069992c-0.170013,-0.070023 -0.460022,-0.110016 -0.720001,-0.110016c-0.740021,0 -1.02002,0.290009 -1.350006,0.87001c-0.369995,0.609985 -1.140015,1.940002 -1.820007,3.029999l-0.069977,0c-0.77002,-1.410004 -1.210022,-2.390015 -1.700012,-3.049988c-0.430008,-0.570007 -0.610001,-0.850021 -1.619995,-0.850021c-0.660004,0 -1.210007,0.110016 -1.210007,0.110016l0,0.069992c1.220001,0.830002 2.690018,3.780006 3.430008,5.109985c-0.140015,0.220001 -2.530014,4.090012 -3.400009,4.51001l0,0.069992zm12.37999,-0.769989c0,0.75 0.420013,0.949997 0.910004,0.949997c0.290009,0 0.589996,-0.080002 0.940002,-0.139999c-0.23999,-1.860001 -0.23999,-3.699997 -0.23999,-5.529991c0,-1.090004 0.040009,-2.140007 0.049988,-3.279991c1.540009,0.019989 2.869995,0.029999 2.869995,0.029999c0.160004,0 0.27002,-0.150009 0.27002,-0.460022c0,-0.349976 -0.060028,-0.699982 -0.060028,-0.699982c-0.22998,0.039993 -0.839966,0.139999 -1.519989,0.139999c-1.419983,0 -6.119995,-0.070023 -6.119995,-0.070023c-0.269989,0 -0.319977,0.320007 -0.319977,0.600006c0,0.25 0.039978,0.559998 0.039978,0.559998c0.290009,-0.039978 0.910004,-0.11998 1.619995,-0.11998c0.230011,0 0.559998,0 1.460022,0.009995c0,0.139999 0.009979,0.309998 0.029999,0.499985c0.039978,0.900009 0.069977,2.01001 0.069977,3.169998l0,4.340012zm6.330017,0.809998l4.940002,0.069992c1.019989,0 1.329987,-0.080002 1.329987,-0.979996c0,-0.110001 0,-0.240005 -0.019989,-0.389999c-0.350006,0.180008 -0.960022,0.279999 -1.869995,0.309998l-2.559998,0.070007c-0.02002,-0.860001 -0.059998,-1.610001 -0.059998,-2.37001l0,-1.459991c0,0 1.429993,0.089996 2.159973,0.089996c0.720001,0 0.810028,-0.380005 0.840027,-1.040001c0,0 -0.26001,0.140015 -0.830017,0.140015l-2.160004,0c0.02002,-1.379997 0.029999,-2.870018 0.029999,-3.439995c0,0 1,0.220001 2.660004,0.220001c1.01001,0 1.050018,-0.470016 1.140015,-1.160004c0,0 -0.960022,0.139999 -3.100006,0.139999l-2.570007,0c0,0 0.070007,0.110001 0.140015,1.469986c0.019989,0.670013 0.079987,3.610001 0.079987,4.449997c0,3.490005 -0.149994,3.880005 -0.149994,3.880005zm8.070007,-0.01001c0,0 0.329987,0.140015 0.619995,0.140015c0.48999,0 0.519989,-0.200012 0.519989,-0.960007c0,-2.289993 -0.130005,-4.389992 -0.130005,-6.579987l0.059998,-0.050018c0.070007,0.260025 0.600006,0.950012 1.330017,1.830009l2.769989,3.32c0.640015,0.769989 1.190002,1.470001 1.539978,2.019989c0.180023,0.279999 0.450012,0.37001 0.660034,0.37001c0.380005,0 0.679993,-0.080002 0.679993,-0.080002c-0.110016,-0.5 -0.119995,-2.059998 -0.119995,-3.630005c0,-2.189995 0.070007,-3.819992 0.070007,-5.509995c0,-0.51001 -0.040009,-0.799988 -0.650024,-0.799988c-0.279999,0 -0.51001,0.130005 -0.51001,0.130005c0,0 0.070007,0.119995 0.140015,1.47998c0.070007,1.440002 0.049988,4.580002 0.109985,5.679993l-0.059998,0.060013c-0.139984,-0.290009 -0.679993,-0.990005 -1.399963,-1.860001l-2.710022,-3.279999c-0.589996,-0.700012 -1.109985,-1.37999 -1.48999,-1.940002c-0.140015,-0.209991 -0.429993,-0.240005 -0.730011,-0.240005c-0.290009,0 -0.540009,0.050018 -0.709991,0.110016c0,0 0.070007,0.110001 0.139984,1.469986c0.029999,0.670013 0.080017,3.610001 0.080017,4.449997c0,3.490005 -0.209991,3.869995 -0.209991,3.869995zm10.759979,0.01001c2.290009,0 2.949982,0.130005 4.179993,0.130005c2.700012,0 4.76001,-2.150009 4.76001,-5.040009c0,-3.800003 -3.009979,-4.889984 -5.910004,-4.889984l-3.099976,0c0,0 0.069977,0.110001 0.139984,1.469986c0.019989,0.670013 0.079987,3.610001 0.079987,4.449997c0,3.490005 -0.149994,3.880005 -0.149994,3.880005zm1.800018,-1.360001c-0.029999,-0.87001 -0.040009,-1.720001 -0.040009,-2.570007c0,-1.729988 0.040009,-5.109985 0.040009,-5.109985c0.22998,-0.019989 0.459991,-0.019989 0.690002,-0.019989c2.269989,0 4.649963,1.149979 4.649963,4.409973c0,2.160004 -1.25,3.950012 -3.409973,3.950012c-0.73999,0 -1.910004,-0.080002 -1.929993,-0.660004zm7.929993,1.360001c0,0 0.26001,0.139999 0.5,0.139999c1.089996,0 1.019989,-0.830002 1.859985,-3.37001c0.590027,-0.029999 1.299988,-0.059998 2.02002,-0.059998c0.469971,0 0.959991,0.01001 1.399994,0.029999c0.329987,1.020004 0.600006,1.930008 0.779999,2.560013c0.169983,0.599991 0.669983,0.839996 1.289978,0.839996c0.490021,0 1.02002,-0.139999 1.02002,-0.139999l0,-0.070007c-0.170013,-0.080002 -0.25,-0.25 -0.640015,-1.12999c-0.699982,-1.560013 -1.949982,-5.319992 -2.47998,-7.090012c-0.48999,-1.639984 -1.920013,-1.689987 -1.920013,-1.689987l-2.919983,8.159988c-0.52002,1.460007 -0.910004,1.75 -0.910004,1.75l0,0.070007zm2.589996,-4c0.350006,-1.110001 0.769989,-2.47998 1.369995,-4.219986l0.070007,0c0.449982,1.149994 0.98999,2.729988 1.5,4.219986c-0.470001,0.009995 -0.959991,0.020004 -1.450012,0.020004c-0.529999,0 -1.049988,-0.01001 -1.48999,-0.020004zm7.720001,4c2.299988,0 2.730011,0.169998 3.730011,0.169998c2.039978,0 3.269989,-1.330002 3.269989,-2.970001c0,-1.330002 -1.049988,-2.100006 -2.23999,-2.389999l0,-0.070015c0.869995,-0.579971 1.319977,-1.499992 1.319977,-2.269966c0,-1.190002 -0.919983,-2.270004 -3.289978,-2.270004l-1.740021,0c-0.570007,0 -1.119995,-0.029999 -1.119995,-0.029999c0,0 0.070007,0.139999 0.140015,1.499985c0.029968,0.670013 0.089996,3.610001 0.089996,4.449997c0,3.490005 -0.160004,3.880005 -0.160004,3.880005zm1.769989,-5.57c0.01001,-1.259987 0.040009,-2.369987 0.040009,-3.469994c0,0 0.070007,-0.019989 0.149994,-0.019989l0.279999,0c1.920013,0 2.380005,0.949997 2.380005,2.069977c0,0.540009 -0.160004,1.110008 -0.459991,1.629997c-0.75,-0.159988 -1.589996,-0.199982 -2.390015,-0.209991zm0.040009,4.209999c-0.01001,-0.680008 -0.040009,-1.369995 -0.040009,-1.990005c0,-0.369995 -0.019989,-0.720001 -0.019989,-1.059998c0,-0.179993 0.019989,-0.350006 0.019989,-0.520004c1.76001,0.040009 3.430023,0.480011 3.430023,2.330002c0,0.919998 -0.230011,1.960007 -1.910034,1.960007c-0.559967,0 -1.469971,-0.139999 -1.47998,-0.720001zm7.25,1.360001l4.890015,0.069992c1.019989,0 1.329987,-0.080002 1.329987,-0.979996c0,-0.110001 0,-0.240005 -0.019989,-0.389999c-0.350037,0.180008 -0.960022,0.279999 -1.870026,0.309998l-2.559967,0.070007c-0.030029,-1.360001 -0.030029,-2.360001 -0.030029,-4.160004c0,-1.080002 0.070007,-2.369995 0.070007,-3.98999c0,-0.550003 -0.619995,-0.869995 -1.25,-0.869995c-0.220001,0 -0.399994,0.059998 -0.630005,0.130005c0,0 0.070007,0.119995 0.140015,1.47998c0.039978,0.899994 0.089996,3.289993 0.089996,4.449997c0,3.490005 -0.160004,3.880005 -0.160004,3.880005zm7.789978,0l4.940033,0.069992c1.019989,0 1.329987,-0.080002 1.329987,-0.979996c0,-0.110001 0,-0.240005 -0.02002,-0.389999c-0.349976,0.180008 -0.959991,0.279999 -1.869995,0.309998l-2.559967,0.070007c-0.02002,-0.860001 -0.060028,-1.610001 -0.060028,-2.37001l0,-1.459991c0,0 1.429993,0.089996 2.160004,0.089996c0.720001,0 0.810028,-0.380005 0.839996,-1.040001c0,0 -0.26001,0.140015 -0.829987,0.140015l-2.160004,0c0.02002,-1.379997 0.029999,-2.870018 0.029999,-3.439995c0,0 1,0.220001 2.660004,0.220001c1.01001,0 1.049988,-0.470016 1.140015,-1.160004c0,0 -0.960022,0.139999 -3.100037,0.139999l-2.569977,0c0,0 0.069977,0.110001 0.139984,1.469986c0.02002,0.670013 0.080017,3.610001 0.080017,4.449997c0,3.490005 -0.150024,3.880005 -0.150024,3.880005z"/>
  </g>
 </g>
</svg>